<svg xmlns="http://www.w3.org/2000/svg" xmlns:xlink="http://www.w3.org/1999/xlink" viewBox="0 0 370.5 68.65"><defs><style>.cls-1{fill:url(#radial-gradient);}.cls-2{fill:#3e057a;}.cls-3{fill:#06f;}.cls-4{fill:#90f;}</style><radialGradient id="radial-gradient" cx="73.54" cy="68.44" r="114.94" gradientUnits="userSpaceOnUse"><stop offset="0" stop-color="#96f"/><stop offset="1" stop-color="#9cf"/></radialGradient></defs><g id="Layer_2" data-name="Layer 2"><g id="Layer_1-2" data-name="Layer 1"><path class="cls-1" d="M41,37l0,0h0Z"/><path class="cls-2" d="M32,22a14.86,14.86,0,0,0,0,29.72,14.31,14.31,0,0,0,2.25-.18L19.69,37,34.44,22.22A14.88,14.88,0,0,0,32,22Z"/><path class="cls-2" d="M32,57.67a20.79,20.79,0,1,1,7.23-40.28l8-8a31.69,31.69,0,1,0,0,55.19l-8.14-8.14A20.7,20.7,0,0,1,32,57.67Z"/><path class="cls-3" d="M34.11,37a1.62,1.62,0,0,1,.49-1.18L57,13.35a1.71,1.71,0,0,1,2.36,0l2.31,2.3L66.93,0,51.27,5.22l2.34,2.34a1.64,1.64,0,0,1,.49,1.18,1.62,1.62,0,0,1-.49,1.18L26.57,37,56.08,66.48l3.42-3.43L34.6,38.15A1.64,1.64,0,0,1,34.11,37Z"/><path class="cls-2" d="M63.76,39.42c.05-.43.1-.85.13-1.28a.62.62,0,0,0-.15-.47l-.09-.07a.62.62,0,0,0-.37-.13H42.83a.64.64,0,0,0-.37.13h0a1.12,1.12,0,0,0-.2.25.62.62,0,0,0,.14.67L57.68,53.8a.58.58,0,0,0,.43.18.62.62,0,0,0,.52-.28l.26-.43.09-.14a34.47,34.47,0,0,0,4.1-9.94C63.37,41.93,63.6,40.67,63.76,39.42Z"/><path class="cls-2" d="M108,35h6.4V49.51a23,23,0,0,1-14.25,4.63c-11.28,0-19.6-7.86-19.6-18.72s8.32-18.73,19.71-18.73c6.08,0,11.18,2,14.61,5.93l-4.27,4.16a13.5,13.5,0,0,0-10-4.16c-7.75,0-13.21,5.25-13.21,12.8,0,7.38,5.46,12.79,13.16,12.79A14.6,14.6,0,0,0,108,46.33Z"/><path class="cls-2" d="M161.67,57.25a12.11,12.11,0,0,1-9.52,4.32c-4.94,0-8.63-1.92-14-7.54-10.2-.88-17.53-8.53-17.53-18.61,0-10.77,8.32-18.73,19.61-18.73s19.6,7.91,19.6,18.73a18.23,18.23,0,0,1-13.62,17.94c2.08,2.23,4,3.06,6.08,3.06a8.23,8.23,0,0,0,6.24-2.91Zm-21.42-9A12.41,12.41,0,0,0,153,35.42a12.8,12.8,0,1,0-25.59,0A12.41,12.41,0,0,0,140.25,48.21Z"/><path class="cls-4" d="M167,17.21h6.76V47.9h19v5.72H167Z"/><path class="cls-4" d="M223.29,41.81H201.5c.78,4.06,4.16,6.66,9,6.66a10,10,0,0,0,7.54-3l3.48,4c-2.49,3-6.4,4.52-11.18,4.52C201,54,195,48,195,39.73s6.08-14.2,14.35-14.2c8.11,0,14,5.67,14,14.36C223.39,40.41,223.34,41.19,223.29,41.81ZM201.45,37.5h15.76a7.57,7.57,0,0,0-7.86-6.77A7.67,7.67,0,0,0,201.45,37.5Z"/><path class="cls-4" d="M255.11,25.85l-11.9,27.77H236.5L224.59,25.85h6.76L240,46.44l8.89-20.59Z"/><path class="cls-4" d="M281.53,37.34V53.62h-6.14V50.24c-1.56,2.39-4.57,3.74-8.73,3.74-6.35,0-10.35-3.48-10.35-8.32,0-4.63,3.12-8.27,11.54-8.27H275V37c0-3.79-2.29-6-6.92-6a13.71,13.71,0,0,0-8.42,2.76L257.14,29c3-2.29,7.28-3.44,11.75-3.44C276.9,25.53,281.53,29.33,281.53,37.34ZM275,44.93V41.71h-6.71c-4.42,0-5.62,1.66-5.62,3.69,0,2.34,2,3.85,5.31,3.85C271.18,49.25,273.94,47.79,275,44.93Z"/><path class="cls-4" d="M306.54,52.11A10.2,10.2,0,0,1,300.3,54c-6.08,0-9.57-3.23-9.57-9.36V31.25h-4.57v-5.2h4.57V19.71h6.5v6.34h7.44v5.2h-7.44V44.46c0,2.71,1.35,4.16,3.85,4.16a5.85,5.85,0,0,0,3.64-1.14Z"/><path class="cls-4" d="M337,41.81H315.17c.78,4.06,4.16,6.66,9,6.66a10,10,0,0,0,7.54-3l3.48,4C332.7,52.42,328.8,54,324,54c-9.3,0-15.34-6-15.34-14.25s6.09-14.2,14.36-14.2c8.11,0,14,5.67,14,14.36C337.07,40.41,337,41.19,337,41.81ZM315.12,37.5h15.76A7.56,7.56,0,0,0,323,30.73,7.68,7.68,0,0,0,315.12,37.5Z"/><path class="cls-4" d="M370.5,15V53.62h-6.24V50a11.45,11.45,0,0,1-9.2,3.95c-8.06,0-14-5.62-14-14.25s6-14.2,14-14.2A11.37,11.37,0,0,1,364,29.28V15Zm-6.39,24.7c0-5.3-3.59-8.68-8.27-8.68s-8.27,3.38-8.27,8.68,3.59,8.69,8.27,8.69S364.11,45,364.11,39.73Z"/></g></g></svg>