<svg xmlns="http://www.w3.org/2000/svg" xmlns:xlink="http://www.w3.org/1999/xlink" viewBox="0 0 370.5 68.65"><defs><style>.cls-1{fill:#3e057a;}.cls-2{fill:#90f;}.cls-3{fill:url(#radial-gradient);}.cls-4{fill:url(#linear-gradient);}.cls-5{fill:url(#linear-gradient-2);}.cls-6{fill:#06f;}.cls-7{fill:url(#linear-gradient-3);}</style><radialGradient id="radial-gradient" cx="73.54" cy="68.44" r="114.94" gradientUnits="userSpaceOnUse"><stop offset="0" stop-color="#96f"/><stop offset="1" stop-color="#9cf"/></radialGradient><linearGradient id="linear-gradient" x1="6.69" y1="13.5" x2="63.67" y2="70.48" gradientUnits="userSpaceOnUse"><stop offset="0.15" stop-color="#a359d8"/><stop offset="0.3" stop-color="#9853d6"/><stop offset="0.56" stop-color="#7c42d2"/><stop offset="0.89" stop-color="#4f27cb"/><stop offset="1" stop-color="#3f1ec9"/></linearGradient><linearGradient id="linear-gradient-2" x1="7.06" y1="13.13" x2="64.04" y2="70.11" gradientUnits="userSpaceOnUse"><stop offset="0" stop-color="#a359d8"/><stop offset="1" stop-color="#3f1ec9"/></linearGradient><linearGradient id="linear-gradient-3" x1="17.58" y1="2.61" x2="74.56" y2="59.59" gradientUnits="userSpaceOnUse"><stop offset="0.15" stop-color="#a359d8"/><stop offset="0.31" stop-color="#9752d6"/><stop offset="0.6" stop-color="#763fd1"/><stop offset="0.98" stop-color="#4220c9"/><stop offset="1" stop-color="#3f1ec9"/></linearGradient></defs><g id="Layer_2" data-name="Layer 2"><g id="Layer_1-2" data-name="Layer 1"><path class="cls-1" d="M108,35.21h6.4V49.72a23.1,23.1,0,0,1-14.25,4.62c-11.28,0-19.6-7.85-19.6-18.72S88.82,16.9,100.21,16.9c6.08,0,11.18,2,14.61,5.93L110.55,27a13.5,13.5,0,0,0-10-4.16c-7.75,0-13.21,5.25-13.21,12.79s5.46,12.8,13.16,12.8A14.6,14.6,0,0,0,108,46.54Z"/><path class="cls-1" d="M161.67,57.46a12.11,12.11,0,0,1-9.52,4.32c-4.94,0-8.63-1.92-14-7.54-10.2-.88-17.53-8.53-17.53-18.62,0-10.76,8.32-18.72,19.61-18.72s19.6,7.91,19.6,18.72a18.22,18.22,0,0,1-13.62,17.94c2.08,2.24,4,3.07,6.08,3.07a8.26,8.26,0,0,0,6.24-2.91Zm-21.42-9A12.41,12.41,0,0,0,153,35.62a12.8,12.8,0,0,0-25.59,0A12.41,12.41,0,0,0,140.25,48.42Z"/><path class="cls-2" d="M167,17.42h6.76V48.1h19v5.72H167Z"/><path class="cls-2" d="M223.29,42H201.5c.78,4.06,4.16,6.66,9,6.66a10,10,0,0,0,7.54-3l3.48,4c-2.49,3-6.4,4.53-11.18,4.53-9.31,0-15.34-6-15.34-14.25s6.08-14.2,14.35-14.2c8.11,0,14,5.67,14,14.36C223.39,40.62,223.34,41.4,223.29,42ZM201.45,37.7h15.76a7.57,7.57,0,0,0-7.86-6.76A7.67,7.67,0,0,0,201.45,37.7Z"/><path class="cls-2" d="M255.11,26.06l-11.9,27.76H236.5L224.59,26.06h6.76L240,46.65l8.89-20.59Z"/><path class="cls-2" d="M281.53,37.55V53.82h-6.14V50.44c-1.56,2.4-4.57,3.75-8.73,3.75-6.35,0-10.35-3.49-10.35-8.32,0-4.63,3.12-8.27,11.54-8.27H275v-.42c0-3.79-2.29-6-6.92-6a13.71,13.71,0,0,0-8.42,2.76l-2.55-4.74c3-2.28,7.28-3.43,11.75-3.43C276.9,25.74,281.53,29.54,281.53,37.55ZM275,45.14V41.92h-6.71c-4.42,0-5.62,1.66-5.62,3.69,0,2.34,2,3.85,5.31,3.85C271.18,49.46,273.94,48,275,45.14Z"/><path class="cls-2" d="M306.54,52.32a10.26,10.26,0,0,1-6.24,1.87c-6.08,0-9.57-3.23-9.57-9.36V31.46h-4.57v-5.2h4.57V19.92h6.5v6.34h7.44v5.2h-7.44V44.67c0,2.71,1.35,4.16,3.85,4.16a5.85,5.85,0,0,0,3.64-1.14Z"/><path class="cls-2" d="M337,42H315.17c.78,4.06,4.16,6.66,9,6.66a10,10,0,0,0,7.54-3l3.48,4c-2.49,3-6.39,4.53-11.18,4.53-9.3,0-15.34-6-15.34-14.25s6.09-14.2,14.36-14.2c8.11,0,14,5.67,14,14.36C337.07,40.62,337,41.4,337,42ZM315.12,37.7h15.76A7.56,7.56,0,0,0,323,30.94,7.68,7.68,0,0,0,315.12,37.7Z"/><path class="cls-2" d="M370.5,15.24V53.82h-6.24V50.24a11.45,11.45,0,0,1-9.2,3.95c-8.06,0-14-5.62-14-14.25s6-14.2,14-14.2A11.37,11.37,0,0,1,364,29.49V15.24Zm-6.39,24.7c0-5.3-3.59-8.69-8.27-8.69s-8.27,3.39-8.27,8.69,3.59,8.68,8.27,8.68S364.11,45.24,364.11,39.94Z"/><path class="cls-3" d="M41,37l0,0h0Z"/><path class="cls-4" d="M32,22a14.86,14.86,0,0,0,0,29.72,14.31,14.31,0,0,0,2.25-.18L19.69,37,34.44,22.22A14.88,14.88,0,0,0,32,22Z"/><path class="cls-5" d="M32,57.67a20.79,20.79,0,1,1,7.23-40.28l8-8a31.69,31.69,0,1,0,0,55.19l-8.14-8.14A20.7,20.7,0,0,1,32,57.67Z"/><path class="cls-6" d="M34.11,37a1.62,1.62,0,0,1,.49-1.18L57,13.35a1.71,1.71,0,0,1,2.36,0l2.31,2.3L66.93,0,51.27,5.22l2.34,2.34a1.64,1.64,0,0,1,.49,1.18,1.62,1.62,0,0,1-.49,1.18L26.57,37,56.08,66.48l3.42-3.43L34.6,38.15A1.64,1.64,0,0,1,34.11,37Z"/><path class="cls-7" d="M63.76,39.42c.05-.43.1-.85.13-1.28a.62.62,0,0,0-.15-.47l-.09-.07a.62.62,0,0,0-.37-.13H42.83a.64.64,0,0,0-.37.13h0a1.12,1.12,0,0,0-.2.25.62.62,0,0,0,.14.67L57.68,53.8a.58.58,0,0,0,.43.18.62.62,0,0,0,.52-.28l.26-.43.09-.14a34.47,34.47,0,0,0,4.1-9.94C63.37,41.93,63.6,40.67,63.76,39.42Z"/></g></g></svg>