<svg xmlns="http://www.w3.org/2000/svg" xmlns:xlink="http://www.w3.org/1999/xlink" width="720" viewBox="0 0 720 144" height="144" version="1.0"><defs><clipPath id="a"><path d="M 610 36 L 657.53125 36 L 657.53125 100 L 610 100 Z M 610 36"/></clipPath><clipPath id="b"><path d="M 89 47 L 118 47 L 118 96 L 89 96 Z M 89 47"/></clipPath><clipPath id="c"><path d="M 113.800781 47.703125 C 113.019531 47.703125 112.238281 47.742188 111.460938 47.820312 C 110.683594 47.894531 109.910156 48.011719 109.144531 48.164062 C 108.378906 48.316406 107.621094 48.503906 106.871094 48.730469 C 106.125 48.957031 105.390625 49.222656 104.667969 49.519531 C 103.945312 49.820312 103.238281 50.15625 102.550781 50.523438 C 101.859375 50.890625 101.191406 51.292969 100.539062 51.726562 C 99.890625 52.160156 99.261719 52.628906 98.660156 53.121094 C 98.054688 53.617188 97.476562 54.144531 96.921875 54.695312 C 96.371094 55.25 95.847656 55.828125 95.351562 56.433594 C 94.855469 57.035156 94.390625 57.664062 93.953125 58.3125 C 93.519531 58.964844 93.117188 59.632812 92.75 60.324219 C 92.382812 61.011719 92.046875 61.71875 91.75 62.441406 C 91.449219 63.164062 91.1875 63.898438 90.960938 64.648438 C 90.734375 65.394531 90.542969 66.152344 90.390625 66.917969 C 90.238281 67.6875 90.125 68.460938 90.046875 69.238281 C 89.96875 70.015625 89.933594 70.796875 89.933594 71.578125 C 89.933594 72.359375 89.96875 73.140625 90.046875 73.917969 C 90.125 74.695312 90.238281 75.46875 90.390625 76.234375 C 90.542969 77 90.734375 77.757812 90.960938 78.507812 C 91.1875 79.253906 91.449219 79.992188 91.75 80.714844 C 92.046875 81.4375 92.382812 82.140625 92.75 82.832031 C 93.117188 83.519531 93.519531 84.191406 93.953125 84.839844 C 94.390625 85.492188 94.855469 86.117188 95.351562 86.722656 C 95.847656 87.328125 96.371094 87.90625 96.921875 88.457031 C 97.476562 89.011719 98.054688 89.535156 98.660156 90.03125 C 99.261719 90.527344 99.890625 90.992188 100.539062 91.425781 C 101.191406 91.863281 101.859375 92.261719 102.550781 92.632812 C 103.238281 93 103.945312 93.335938 104.667969 93.632812 C 105.390625 93.933594 106.125 94.195312 106.871094 94.421875 C 107.621094 94.648438 108.378906 94.839844 109.144531 94.992188 C 109.910156 95.144531 110.683594 95.257812 111.460938 95.335938 C 112.238281 95.414062 113.019531 95.449219 113.800781 95.449219 C 115.015625 95.449219 116.21875 95.351562 117.414062 95.160156 L 94.027344 71.800781 L 117.722656 48.058594 C 116.425781 47.832031 115.117188 47.714844 113.800781 47.703125 Z M 113.800781 47.703125"/></clipPath><clipPath id="e"><path d="M 62.398438 20 L 139 20 L 139 122.699219 L 62.398438 122.699219 Z M 62.398438 20"/></clipPath><clipPath id="f"><path d="M 113.800781 105.007812 C 112.582031 105.011719 111.371094 104.945312 110.160156 104.8125 C 108.949219 104.679688 107.75 104.480469 106.558594 104.21875 C 105.371094 103.953125 104.199219 103.625 103.046875 103.234375 C 101.894531 102.839844 100.765625 102.386719 99.660156 101.871094 C 98.558594 101.355469 97.484375 100.785156 96.445312 100.152344 C 95.40625 99.519531 94.402344 98.832031 93.4375 98.089844 C 92.472656 97.34375 91.546875 96.554688 90.671875 95.710938 C 89.792969 94.867188 88.960938 93.976562 88.179688 93.042969 C 87.398438 92.109375 86.671875 91.136719 85.996094 90.121094 C 85.320312 89.109375 84.703125 88.058594 84.140625 86.976562 C 83.582031 85.898438 83.082031 84.789062 82.644531 83.652344 C 82.203125 82.515625 81.828125 81.359375 81.515625 80.183594 C 81.203125 79.003906 80.957031 77.8125 80.773438 76.609375 C 80.589844 75.40625 80.472656 74.195312 80.425781 72.976562 C 80.375 71.761719 80.390625 70.542969 80.472656 69.328125 C 80.558594 68.113281 80.707031 66.90625 80.921875 65.707031 C 81.136719 64.511719 81.417969 63.328125 81.761719 62.15625 C 82.105469 60.988281 82.511719 59.84375 82.984375 58.71875 C 83.453125 57.597656 83.984375 56.5 84.574219 55.4375 C 85.164062 54.371094 85.808594 53.339844 86.511719 52.34375 C 87.214844 51.351562 87.96875 50.394531 88.773438 49.484375 C 89.582031 48.570312 90.4375 47.707031 91.335938 46.886719 C 92.238281 46.066406 93.183594 45.300781 94.167969 44.585938 C 95.152344 43.867188 96.175781 43.207031 97.230469 42.605469 C 98.289062 42 99.375 41.457031 100.492188 40.972656 C 101.609375 40.488281 102.75 40.0625 103.914062 39.703125 C 105.078125 39.34375 106.257812 39.046875 107.453125 38.816406 C 108.648438 38.585938 109.851562 38.421875 111.066406 38.320312 C 112.28125 38.222656 113.496094 38.1875 114.714844 38.222656 C 115.929688 38.253906 117.144531 38.355469 118.347656 38.523438 C 119.554688 38.6875 120.75 38.917969 121.929688 39.214844 C 123.113281 39.511719 124.273438 39.875 125.414062 40.296875 L 138.265625 27.445312 C 137.300781 26.902344 136.324219 26.390625 135.328125 25.910156 C 134.332031 25.429688 133.320312 24.984375 132.292969 24.570312 C 131.269531 24.15625 130.230469 23.773438 129.179688 23.429688 C 128.128906 23.082031 127.070312 22.769531 126 22.492188 C 124.929688 22.214844 123.851562 21.972656 122.765625 21.765625 C 121.675781 21.558594 120.585938 21.386719 119.488281 21.25 C 118.390625 21.117188 117.289062 21.015625 116.1875 20.953125 C 115.082031 20.886719 113.976562 20.859375 112.871094 20.867188 C 111.765625 20.875 110.660156 20.917969 109.558594 21 C 108.457031 21.078125 107.355469 21.195312 106.261719 21.347656 C 105.164062 21.5 104.074219 21.6875 102.992188 21.910156 C 101.910156 22.128906 100.835938 22.386719 99.769531 22.679688 C 98.703125 22.972656 97.644531 23.300781 96.601562 23.664062 C 95.554688 24.023438 94.523438 24.417969 93.503906 24.847656 C 92.484375 25.277344 91.480469 25.738281 90.492188 26.230469 C 89.5 26.726562 88.53125 27.253906 87.574219 27.808594 C 86.621094 28.367188 85.683594 28.957031 84.765625 29.574219 C 83.851562 30.191406 82.953125 30.839844 82.082031 31.519531 C 81.207031 32.195312 80.355469 32.898438 79.527344 33.632812 C 78.695312 34.363281 77.894531 35.121094 77.113281 35.90625 C 76.335938 36.691406 75.582031 37.503906 74.855469 38.335938 C 74.128906 39.171875 73.429688 40.027344 72.761719 40.90625 C 72.089844 41.785156 71.449219 42.6875 70.835938 43.605469 C 70.226562 44.527344 69.644531 45.46875 69.09375 46.429688 C 68.542969 47.386719 68.023438 48.363281 67.535156 49.355469 C 67.050781 50.347656 66.59375 51.355469 66.171875 52.378906 C 65.753906 53.402344 65.363281 54.4375 65.011719 55.484375 C 64.65625 56.535156 64.335938 57.589844 64.050781 58.660156 C 63.769531 59.730469 63.519531 60.804688 63.304688 61.890625 C 63.089844 62.976562 62.910156 64.066406 62.765625 65.164062 C 62.621094 66.257812 62.515625 67.359375 62.441406 68.464844 C 62.371094 69.566406 62.332031 70.671875 62.332031 71.777344 C 62.332031 72.882812 62.371094 73.988281 62.441406 75.09375 C 62.515625 76.195312 62.621094 77.296875 62.765625 78.394531 C 62.910156 79.488281 63.089844 80.582031 63.304688 81.664062 C 63.519531 82.75 63.769531 83.828125 64.050781 84.894531 C 64.335938 85.964844 64.65625 87.023438 65.011719 88.070312 C 65.363281 89.117188 65.753906 90.152344 66.171875 91.175781 C 66.59375 92.199219 67.050781 93.207031 67.535156 94.199219 C 68.023438 95.191406 68.542969 96.167969 69.09375 97.128906 C 69.644531 98.085938 70.226562 99.027344 70.835938 99.949219 C 71.449219 100.871094 72.089844 101.769531 72.761719 102.648438 C 73.429688 103.53125 74.128906 104.386719 74.855469 105.21875 C 75.582031 106.054688 76.335938 106.863281 77.113281 107.648438 C 77.894531 108.433594 78.695312 109.191406 79.527344 109.925781 C 80.355469 110.65625 81.207031 111.363281 82.082031 112.039062 C 82.953125 112.714844 83.851562 113.363281 84.765625 113.980469 C 85.683594 114.601562 86.621094 115.1875 87.574219 115.746094 C 88.53125 116.304688 89.5 116.828125 90.492188 117.324219 C 91.480469 117.816406 92.484375 118.28125 93.503906 118.707031 C 94.523438 119.136719 95.554688 119.53125 96.601562 119.894531 C 97.644531 120.253906 98.703125 120.582031 99.769531 120.875 C 100.835938 121.167969 101.910156 121.425781 102.992188 121.648438 C 104.074219 121.871094 105.164062 122.058594 106.261719 122.210938 C 107.355469 122.359375 108.457031 122.476562 109.558594 122.554688 C 110.660156 122.636719 111.765625 122.679688 112.871094 122.6875 C 113.976562 122.695312 115.082031 122.667969 116.1875 122.605469 C 117.289062 122.539062 118.390625 122.441406 119.488281 122.304688 C 120.585938 122.167969 121.679688 121.996094 122.765625 121.789062 C 123.851562 121.582031 124.929688 121.339844 126 121.0625 C 127.070312 120.785156 128.128906 120.476562 129.179688 120.128906 C 130.230469 119.78125 131.269531 119.402344 132.292969 118.988281 C 133.320312 118.574219 134.332031 118.125 135.328125 117.648438 C 136.324219 117.167969 137.300781 116.65625 138.265625 116.109375 L 125.191406 103.035156 C 121.511719 104.363281 117.714844 105.019531 113.800781 105.007812 Z M 113.800781 105.007812"/></clipPath><clipPath id="h"><path d="M 105 12.3125 L 170 12.3125 L 170 120 L 105 120 Z M 105 12.3125"/></clipPath><clipPath id="i"><path d="M 130 72 L 166 72 L 166 100 L 130 100 Z M 130 72"/></clipPath><clipPath id="j"><path d="M 164.816406 75.691406 C 164.898438 75 164.976562 74.324219 165.027344 73.632812 C 165.054688 73.347656 164.976562 73.09375 164.785156 72.878906 L 164.640625 72.765625 C 164.464844 72.628906 164.269531 72.5625 164.046875 72.558594 L 131.199219 72.558594 C 130.976562 72.5625 130.777344 72.632812 130.601562 72.765625 C 130.476562 72.882812 130.371094 73.019531 130.28125 73.167969 C 130.207031 73.355469 130.191406 73.542969 130.234375 73.738281 C 130.273438 73.933594 130.363281 74.105469 130.507812 74.246094 L 155.050781 98.792969 C 155.238281 98.988281 155.46875 99.085938 155.742188 99.082031 C 156.101562 99.082031 156.378906 98.933594 156.578125 98.632812 L 156.996094 97.941406 L 157.140625 97.714844 C 160.175781 92.738281 162.371094 87.417969 163.726562 81.746094 C 164.191406 79.722656 164.558594 77.699219 164.816406 75.691406 Z M 164.816406 75.691406"/></clipPath><linearGradient x1="16.165" gradientTransform="matrix(1.6063 0 0 1.60655 62.4 12.36)" xmlns:xlink="http://www.w3.org/1999/xlink" y1="22.975" x2="39.675" gradientUnits="userSpaceOnUse" y2="46.485" xlink:type="simple" xlink:actuate="onLoad" id="d" xlink:show="other"><stop stop-color="#A258D8" offset="0"/><stop stop-color="#A158D8" offset=".031"/><stop stop-color="#A058D7" offset=".063"/><stop stop-color="#9F57D7" offset=".094"/><stop stop-color="#9E56D7" offset=".125"/><stop stop-color="#9E56D7" offset=".156"/><stop stop-color="#9D55D7" offset=".188"/><stop stop-color="#9C55D7" offset=".219"/><stop stop-color="#9B54D6" offset=".25"/><stop stop-color="#9A54D6" offset=".281"/><stop stop-color="#9953D6" offset=".313"/><stop stop-color="#9853D6" offset=".328"/><stop stop-color="#9753D6" offset=".344"/><stop stop-color="#9752D6" offset=".359"/><stop stop-color="#9652D6" offset=".368"/><stop stop-color="#9652D6" offset=".375"/><stop stop-color="#9551D6" offset=".391"/><stop stop-color="#9551D5" offset=".406"/><stop stop-color="#9450D5" offset=".422"/><stop stop-color="#9350D5" offset=".438"/><stop stop-color="#9350D5" offset=".453"/><stop stop-color="#924FD5" offset=".469"/><stop stop-color="#914FD5" offset=".484"/><stop stop-color="#904ED5" offset=".5"/><stop stop-color="#904ED5" offset=".516"/><stop stop-color="#8F4ED5" offset=".531"/><stop stop-color="#8E4DD5" offset=".547"/><stop stop-color="#8E4DD5" offset=".563"/><stop stop-color="#8D4CD4" offset=".578"/><stop stop-color="#8C4CD4" offset=".594"/><stop stop-color="#8C4BD4" offset=".609"/><stop stop-color="#8B4BD4" offset=".625"/><stop stop-color="#8A4BD4" offset=".632"/><stop stop-color="#8A4AD4" offset=".641"/><stop stop-color="#8A4AD4" offset=".656"/><stop stop-color="#894AD4" offset=".672"/><stop stop-color="#8849D4" offset=".688"/><stop stop-color="#8749D4" offset=".703"/><stop stop-color="#8749D4" offset=".719"/><stop stop-color="#8648D3" offset=".734"/><stop stop-color="#8548D3" offset=".75"/><stop stop-color="#8547D3" offset=".766"/><stop stop-color="#8447D3" offset=".781"/><stop stop-color="#8346D3" offset=".797"/><stop stop-color="#8346D3" offset=".813"/><stop stop-color="#8246D3" offset=".828"/><stop stop-color="#8145D3" offset=".844"/><stop stop-color="#8045D3" offset=".859"/><stop stop-color="#8044D3" offset=".875"/><stop stop-color="#7F44D3" offset=".891"/><stop stop-color="#7E44D2" offset=".906"/><stop stop-color="#7E43D2" offset=".922"/><stop stop-color="#7D43D2" offset=".938"/><stop stop-color="#7C42D2" offset=".953"/><stop stop-color="#7C42D2" offset=".969"/><stop stop-color="#7B41D2" offset=".984"/><stop stop-color="#7A41D2" offset="1"/></linearGradient><linearGradient x1="-.39" gradientTransform="matrix(1.6063 0 0 1.60655 62.4 12.36)" xmlns:xlink="http://www.w3.org/1999/xlink" y1="5.68" x2="54.92" gradientUnits="userSpaceOnUse" y2="60.99" xlink:type="simple" xlink:actuate="onLoad" id="g" xlink:show="other"><stop stop-color="#A359D8" offset="0"/><stop stop-color="#A359D8" offset=".125"/><stop stop-color="#A359D8" offset=".141"/><stop stop-color="#A258D8" offset=".148"/><stop stop-color="#A158D8" offset=".156"/><stop stop-color="#A058D8" offset=".164"/><stop stop-color="#A057D7" offset=".172"/><stop stop-color="#9F57D7" offset=".18"/><stop stop-color="#9E56D7" offset=".188"/><stop stop-color="#9D56D7" offset=".195"/><stop stop-color="#9D55D7" offset=".203"/><stop stop-color="#9C55D7" offset=".211"/><stop stop-color="#9B54D7" offset=".219"/><stop stop-color="#9A54D7" offset=".227"/><stop stop-color="#9A54D7" offset=".234"/><stop stop-color="#9953D6" offset=".242"/><stop stop-color="#9853D6" offset=".25"/><stop stop-color="#9752D6" offset=".258"/><stop stop-color="#9752D6" offset=".266"/><stop stop-color="#9651D6" offset=".273"/><stop stop-color="#9551D6" offset=".281"/><stop stop-color="#9450D6" offset=".289"/><stop stop-color="#9450D6" offset=".297"/><stop stop-color="#934FD6" offset=".305"/><stop stop-color="#924FD5" offset=".313"/><stop stop-color="#914FD5" offset=".32"/><stop stop-color="#914ED5" offset=".328"/><stop stop-color="#904ED5" offset=".336"/><stop stop-color="#8F4DD5" offset=".344"/><stop stop-color="#8E4DD5" offset=".352"/><stop stop-color="#8E4CD5" offset=".359"/><stop stop-color="#8D4CD5" offset=".367"/><stop stop-color="#8C4BD5" offset=".375"/><stop stop-color="#8B4BD4" offset=".383"/><stop stop-color="#8A4BD4" offset=".391"/><stop stop-color="#8A4AD4" offset=".398"/><stop stop-color="#894AD4" offset=".406"/><stop stop-color="#8849D4" offset=".414"/><stop stop-color="#8749D4" offset=".422"/><stop stop-color="#8748D4" offset=".427"/><stop stop-color="#8648D4" offset=".43"/><stop stop-color="#8648D4" offset=".438"/><stop stop-color="#8547D4" offset=".445"/><stop stop-color="#8447D3" offset=".453"/><stop stop-color="#8447D3" offset=".461"/><stop stop-color="#8346D3" offset=".469"/><stop stop-color="#8246D3" offset=".477"/><stop stop-color="#8145D3" offset=".484"/><stop stop-color="#8145D3" offset=".492"/><stop stop-color="#8044D3" offset=".5"/><stop stop-color="#7F44D3" offset=".508"/><stop stop-color="#7E43D2" offset=".516"/><stop stop-color="#7E43D2" offset=".523"/><stop stop-color="#7D43D2" offset=".531"/><stop stop-color="#7C42D2" offset=".539"/><stop stop-color="#7B42D2" offset=".547"/><stop stop-color="#7B41D2" offset=".555"/><stop stop-color="#7A41D2" offset=".563"/><stop stop-color="#7940D2" offset=".57"/><stop stop-color="#7840D2" offset=".573"/><stop stop-color="#7840D2" offset=".578"/><stop stop-color="#783FD1" offset=".586"/><stop stop-color="#773FD1" offset=".594"/><stop stop-color="#763FD1" offset=".602"/><stop stop-color="#753ED1" offset=".609"/><stop stop-color="#753ED1" offset=".617"/><stop stop-color="#743DD1" offset=".625"/><stop stop-color="#733DD1" offset=".633"/><stop stop-color="#723CD1" offset=".641"/><stop stop-color="#713CD1" offset=".648"/><stop stop-color="#713BD0" offset=".656"/><stop stop-color="#703BD0" offset=".664"/><stop stop-color="#6F3BD0" offset=".672"/><stop stop-color="#6E3AD0" offset=".68"/><stop stop-color="#6E3AD0" offset=".688"/><stop stop-color="#6D39D0" offset=".695"/><stop stop-color="#6C39D0" offset=".703"/><stop stop-color="#6B38D0" offset=".711"/><stop stop-color="#6B38D0" offset=".719"/><stop stop-color="#6A37CF" offset=".727"/><stop stop-color="#6937CF" offset=".734"/><stop stop-color="#6836CF" offset=".742"/><stop stop-color="#6836CF" offset=".75"/><stop stop-color="#6736CF" offset=".758"/><stop stop-color="#6635CF" offset=".766"/><stop stop-color="#6535CF" offset=".773"/><stop stop-color="#6534CF" offset=".781"/><stop stop-color="#6434CE" offset=".789"/><stop stop-color="#6333CE" offset=".797"/><stop stop-color="#6233CE" offset=".805"/><stop stop-color="#6232CE" offset=".813"/><stop stop-color="#6132CE" offset=".82"/><stop stop-color="#6032CE" offset=".828"/><stop stop-color="#5F31CE" offset=".836"/><stop stop-color="#5F31CE" offset=".844"/><stop stop-color="#5E30CE" offset=".852"/><stop stop-color="#5D30CD" offset=".859"/><stop stop-color="#5C2FCD" offset=".867"/><stop stop-color="#5B2FCD" offset=".875"/><stop stop-color="#5B2ECD" offset=".883"/><stop stop-color="#5A2ECD" offset=".891"/><stop stop-color="#592ECD" offset=".898"/><stop stop-color="#582DCD" offset=".906"/><stop stop-color="#582DCD" offset=".914"/><stop stop-color="#572CCD" offset=".922"/><stop stop-color="#562CCC" offset=".93"/><stop stop-color="#552BCC" offset=".938"/><stop stop-color="#552BCC" offset=".945"/><stop stop-color="#542ACC" offset=".953"/><stop stop-color="#532ACC" offset=".961"/><stop stop-color="#522ACC" offset=".969"/><stop stop-color="#5229CC" offset=".977"/><stop stop-color="#5129CC" offset=".984"/><stop stop-color="#5028CC" offset=".992"/><stop stop-color="#4F28CB" offset="1"/></linearGradient><linearGradient x1="47.322" gradientTransform="matrix(1.6063 0 0 1.60655 62.4 12.36)" xmlns:xlink="http://www.w3.org/1999/xlink" y1="32.352" x2="66.43" gradientUnits="userSpaceOnUse" y2="51.46" xlink:type="simple" xlink:actuate="onLoad" id="k" xlink:show="other"><stop stop-color="#7F44D2" offset="0"/><stop stop-color="#7F44D2" offset=".016"/><stop stop-color="#7E44D2" offset=".031"/><stop stop-color="#7D43D2" offset=".047"/><stop stop-color="#7D43D2" offset=".063"/><stop stop-color="#7C43D2" offset=".078"/><stop stop-color="#7C42D2" offset=".094"/><stop stop-color="#7B42D2" offset=".109"/><stop stop-color="#7A42D2" offset=".125"/><stop stop-color="#7A41D2" offset=".141"/><stop stop-color="#7941D2" offset=".156"/><stop stop-color="#7940D1" offset=".172"/><stop stop-color="#7840D1" offset=".188"/><stop stop-color="#7740D1" offset=".203"/><stop stop-color="#773FD1" offset=".219"/><stop stop-color="#763FD1" offset=".234"/><stop stop-color="#763FD1" offset=".25"/><stop stop-color="#753ED1" offset=".266"/><stop stop-color="#743ED1" offset=".281"/><stop stop-color="#733DD1" offset=".297"/><stop stop-color="#733DD1" offset=".313"/><stop stop-color="#723DD0" offset=".328"/><stop stop-color="#713CD0" offset=".344"/><stop stop-color="#713CD0" offset=".359"/><stop stop-color="#703BD0" offset=".375"/><stop stop-color="#6F3BD0" offset=".391"/><stop stop-color="#6E3AD0" offset=".406"/><stop stop-color="#6E3AD0" offset=".422"/><stop stop-color="#6D3AD0" offset=".432"/><stop stop-color="#6D39D0" offset=".438"/><stop stop-color="#6C39D0" offset=".453"/><stop stop-color="#6C39CF" offset=".469"/><stop stop-color="#6B38CF" offset=".484"/><stop stop-color="#6A38CF" offset=".5"/><stop stop-color="#6937CF" offset=".516"/><stop stop-color="#6937CF" offset=".531"/><stop stop-color="#6837CF" offset=".547"/><stop stop-color="#6736CF" offset=".563"/><stop stop-color="#6736CF" offset=".568"/><stop stop-color="#6635CF" offset=".578"/><stop stop-color="#6635CF" offset=".594"/><stop stop-color="#6535CE" offset=".609"/><stop stop-color="#6434CE" offset=".625"/><stop stop-color="#6434CE" offset=".641"/><stop stop-color="#6334CE" offset=".656"/><stop stop-color="#6233CE" offset=".672"/><stop stop-color="#6233CE" offset=".688"/><stop stop-color="#6132CE" offset=".703"/><stop stop-color="#6032CE" offset=".719"/><stop stop-color="#5F31CE" offset=".734"/><stop stop-color="#5F31CD" offset=".75"/><stop stop-color="#5E31CD" offset=".766"/><stop stop-color="#5D30CD" offset=".781"/><stop stop-color="#5D30CD" offset=".797"/><stop stop-color="#5C2FCD" offset=".813"/><stop stop-color="#5B2FCD" offset=".828"/><stop stop-color="#5A2ECD" offset=".844"/><stop stop-color="#5A2ECD" offset=".859"/><stop stop-color="#592ECD" offset=".875"/><stop stop-color="#582DCC" offset=".891"/><stop stop-color="#572DCC" offset=".906"/><stop stop-color="#572CCC" offset=".922"/><stop stop-color="#562CCC" offset=".938"/><stop stop-color="#552BCC" offset=".953"/><stop stop-color="#552BCC" offset=".969"/><stop stop-color="#542BCC" offset=".984"/><stop stop-color="#532ACC" offset="1"/></linearGradient></defs><path fill="#FFF" d="M-72 -14.4H792V158.4H-72z"/><path fill="#FFF" d="M-72 -14.4H792V158.4H-72z"/><path fill="#FDFDFD" d="M-72 -14.4H792V158.4H-72z"/><path fill="#FDFDFD" d="M 320.019531 62.675781 L 400.230469 62.675781 L 400.230469 79.925781 L 320.019531 79.925781 L 320.019531 62.675781"/><path fill="#3E057A" d="M 235.878906 68.925781 L 246.160156 68.925781 L 246.160156 92.238281 C 242.863281 94.710938 239.253906 96.585938 235.332031 97.855469 C 231.414062 99.128906 227.390625 99.730469 223.269531 99.660156 C 205.152344 99.660156 191.789062 87.046875 191.789062 69.585938 C 191.789062 52.121094 205.070312 39.511719 223.367188 39.511719 C 233.132812 39.511719 241.324219 42.722656 246.835938 49.039062 L 239.976562 55.738281 C 238.941406 54.65625 237.804688 53.691406 236.570312 52.84375 C 235.335938 52 234.027344 51.289062 232.644531 50.714844 C 231.261719 50.136719 229.835938 49.710938 228.363281 49.429688 C 226.894531 49.152344 225.410156 49.027344 223.914062 49.054688 C 211.464844 49.054688 202.695312 57.488281 202.695312 69.601562 C 202.695312 81.714844 211.464844 90.164062 223.832031 90.164062 C 225.941406 90.210938 228.015625 89.976562 230.0625 89.460938 C 232.105469 88.945312 234.046875 88.167969 235.878906 87.128906 Z M 235.878906 68.925781"/><path fill="#3E057A" d="M 322.089844 104.671875 C 321.15625 105.785156 320.109375 106.78125 318.953125 107.660156 C 317.792969 108.539062 316.554688 109.277344 315.230469 109.878906 C 313.910156 110.476562 312.535156 110.925781 311.113281 111.21875 C 309.6875 111.511719 308.25 111.640625 306.796875 111.613281 C 298.863281 111.613281 292.9375 108.527344 284.308594 99.5 C 267.925781 98.085938 256.152344 85.796875 256.152344 69.585938 C 256.152344 52.296875 269.515625 39.511719 287.652344 39.511719 C 305.785156 39.511719 319.132812 52.21875 319.132812 69.585938 C 319.164062 71.214844 319.054688 72.835938 318.8125 74.445312 C 318.570312 76.054688 318.195312 77.636719 317.6875 79.183594 C 317.179688 80.734375 316.550781 82.226562 315.792969 83.671875 C 315.039062 85.113281 314.167969 86.484375 313.183594 87.78125 C 312.195312 89.078125 311.109375 90.285156 309.925781 91.402344 C 308.738281 92.519531 307.46875 93.53125 306.113281 94.433594 C 304.757812 95.335938 303.335938 96.125 301.851562 96.789062 C 300.363281 97.457031 298.832031 97.996094 297.257812 98.40625 C 300.597656 102.003906 303.683594 103.339844 307.023438 103.339844 C 307.976562 103.332031 308.921875 103.226562 309.851562 103.015625 C 310.78125 102.804688 311.679688 102.5 312.542969 102.09375 C 313.410156 101.691406 314.222656 101.203125 314.980469 100.621094 C 315.738281 100.042969 316.429688 99.390625 317.046875 98.664062 Z M 287.683594 90.214844 C 288.363281 90.230469 289.039062 90.214844 289.71875 90.167969 C 290.394531 90.117188 291.066406 90.03125 291.734375 89.914062 C 292.40625 89.792969 293.066406 89.640625 293.71875 89.453125 C 294.371094 89.265625 295.011719 89.046875 295.644531 88.796875 C 296.273438 88.542969 296.890625 88.257812 297.492188 87.945312 C 298.09375 87.628906 298.675781 87.285156 299.242188 86.910156 C 299.808594 86.535156 300.355469 86.132812 300.882812 85.699219 C 301.40625 85.269531 301.90625 84.8125 302.386719 84.332031 C 302.863281 83.851562 303.316406 83.34375 303.746094 82.816406 C 304.171875 82.289062 304.570312 81.738281 304.941406 81.171875 C 305.3125 80.601562 305.652344 80.015625 305.964844 79.410156 C 306.273438 78.808594 306.554688 78.1875 306.800781 77.558594 C 307.050781 76.925781 307.265625 76.28125 307.445312 75.625 C 307.628906 74.972656 307.777344 74.308594 307.890625 73.640625 C 308.003906 72.972656 308.085938 72.296875 308.132812 71.621094 C 308.175781 70.941406 308.1875 70.265625 308.164062 69.585938 C 308.144531 68.925781 308.09375 68.265625 308.011719 67.609375 C 307.929688 66.953125 307.816406 66.300781 307.671875 65.65625 C 307.527344 65.011719 307.351562 64.375 307.144531 63.746094 C 306.9375 63.117188 306.703125 62.5 306.4375 61.894531 C 306.171875 61.289062 305.875 60.695312 305.554688 60.121094 C 305.230469 59.542969 304.882812 58.980469 304.503906 58.4375 C 304.128906 57.894531 303.726562 57.371094 303.296875 56.867188 C 302.871094 56.363281 302.417969 55.878906 301.945312 55.417969 C 301.46875 54.957031 300.976562 54.519531 300.457031 54.105469 C 299.941406 53.691406 299.40625 53.304688 298.855469 52.941406 C 298.300781 52.582031 297.730469 52.246094 297.144531 51.941406 C 296.558594 51.632812 295.957031 51.355469 295.347656 51.105469 C 294.734375 50.859375 294.109375 50.640625 293.476562 50.449219 C 292.84375 50.261719 292.199219 50.105469 291.550781 49.976562 C 290.902344 49.851562 290.25 49.753906 289.589844 49.691406 C 288.933594 49.628906 288.273438 49.597656 287.609375 49.597656 C 286.949219 49.597656 286.289062 49.628906 285.632812 49.691406 C 284.972656 49.753906 284.320312 49.851562 283.671875 49.976562 C 283.019531 50.105469 282.378906 50.261719 281.746094 50.449219 C 281.113281 50.640625 280.488281 50.859375 279.875 51.105469 C 279.261719 51.355469 278.664062 51.632812 278.078125 51.941406 C 277.492188 52.246094 276.921875 52.582031 276.367188 52.941406 C 275.8125 53.304688 275.277344 53.691406 274.761719 54.105469 C 274.246094 54.519531 273.75 54.957031 273.277344 55.417969 C 272.804688 55.878906 272.351562 56.363281 271.925781 56.867188 C 271.496094 57.371094 271.09375 57.894531 270.71875 58.4375 C 270.339844 58.980469 269.992188 59.542969 269.667969 60.121094 C 269.34375 60.695312 269.050781 61.289062 268.785156 61.894531 C 268.519531 62.5 268.28125 63.117188 268.078125 63.746094 C 267.871094 64.375 267.695312 65.011719 267.550781 65.65625 C 267.40625 66.300781 267.292969 66.953125 267.210938 67.609375 C 267.128906 68.265625 267.078125 68.925781 267.058594 69.585938 C 267.035156 70.265625 267.050781 70.945312 267.097656 71.625 C 267.144531 72.304688 267.226562 72.980469 267.34375 73.648438 C 267.460938 74.320312 267.613281 74.984375 267.796875 75.640625 C 267.984375 76.292969 268.199219 76.9375 268.453125 77.570312 C 268.703125 78.207031 268.984375 78.824219 269.300781 79.425781 C 269.613281 80.03125 269.957031 80.617188 270.332031 81.1875 C 270.707031 81.753906 271.109375 82.304688 271.539062 82.832031 C 271.96875 83.359375 272.425781 83.863281 272.910156 84.34375 C 273.390625 84.824219 273.894531 85.28125 274.425781 85.707031 C 274.953125 86.136719 275.503906 86.539062 276.074219 86.910156 C 276.644531 87.285156 277.230469 87.625 277.835938 87.9375 C 278.441406 88.25 279.058594 88.53125 279.691406 88.78125 C 280.328125 89.03125 280.972656 89.246094 281.628906 89.429688 C 282.285156 89.613281 282.945312 89.761719 283.617188 89.875 C 284.289062 89.992188 284.964844 90.070312 285.644531 90.117188 C 286.324219 90.164062 287.003906 90.171875 287.683594 90.148438 Z M 287.683594 90.214844"/><path fill="#90F" d="M 330.652344 40.347656 L 341.511719 40.347656 L 341.511719 89.636719 L 372.03125 89.636719 L 372.03125 98.824219 L 330.652344 98.824219 Z M 330.652344 40.347656"/><path fill="#90F" d="M 421.070312 79.835938 L 386.070312 79.835938 C 387.320312 86.359375 392.75 90.535156 400.527344 90.535156 C 401.648438 90.578125 402.761719 90.503906 403.867188 90.316406 C 404.972656 90.125 406.050781 89.824219 407.09375 89.410156 C 408.136719 88.992188 409.125 88.476562 410.058594 87.851562 C 410.992188 87.230469 411.851562 86.519531 412.636719 85.714844 L 418.226562 92.140625 C 414.226562 96.960938 407.945312 99.417969 400.269531 99.417969 C 385.3125 99.417969 375.628906 89.78125 375.628906 76.527344 C 375.628906 63.269531 385.394531 53.710938 398.679688 53.710938 C 411.707031 53.710938 421.167969 62.820312 421.167969 76.78125 C 421.230469 77.617188 421.148438 78.871094 421.070312 79.835938 Z M 385.988281 72.925781 L 411.304688 72.925781 C 411.222656 72.164062 411.070312 71.417969 410.847656 70.683594 C 410.625 69.949219 410.335938 69.242188 409.980469 68.5625 C 409.621094 67.886719 409.207031 67.246094 408.730469 66.644531 C 408.25 66.046875 407.722656 65.496094 407.140625 64.996094 C 406.558594 64.496094 405.9375 64.054688 405.273438 63.671875 C 404.609375 63.289062 403.914062 62.972656 403.1875 62.722656 C 402.464844 62.472656 401.722656 62.292969 400.964844 62.183594 C 400.207031 62.070312 399.445312 62.03125 398.679688 62.066406 C 397.910156 62.039062 397.148438 62.082031 396.390625 62.195312 C 395.632812 62.308594 394.890625 62.492188 394.167969 62.746094 C 393.445312 62.996094 392.75 63.316406 392.085938 63.695312 C 391.417969 64.078125 390.796875 64.519531 390.210938 65.019531 C 389.628906 65.515625 389.097656 66.066406 388.617188 66.664062 C 388.136719 67.261719 387.71875 67.898438 387.355469 68.574219 C 386.996094 69.25 386.699219 69.957031 386.46875 70.6875 C 386.238281 71.417969 386.078125 72.164062 385.988281 72.925781 Z M 385.988281 72.925781"/><path fill="#90F" d="M 472.183594 54.226562 L 453.066406 98.824219 L 442.289062 98.824219 L 423.160156 54.226562 L 434.015625 54.226562 L 447.910156 87.304688 L 462.191406 54.226562 Z M 472.183594 54.226562"/><path fill="#90F" d="M 514.621094 72.6875 L 514.621094 98.824219 L 504.757812 98.824219 L 504.757812 93.394531 C 502.253906 97.25 497.417969 99.417969 490.734375 99.417969 C 480.535156 99.417969 474.109375 93.8125 474.109375 86.050781 C 474.109375 78.613281 479.121094 72.765625 492.648438 72.765625 L 504.132812 72.765625 L 504.132812 72.089844 C 504.132812 66.003906 500.453125 62.453125 493.015625 62.453125 C 490.578125 62.421875 488.203125 62.785156 485.886719 63.546875 C 483.570312 64.304688 481.4375 65.417969 479.492188 66.886719 L 475.394531 59.269531 C 480.214844 55.609375 487.089844 53.761719 494.269531 53.761719 C 507.183594 53.710938 514.621094 59.816406 514.621094 72.6875 Z M 504.132812 84.878906 L 504.132812 79.707031 L 493.351562 79.707031 C 486.253906 79.707031 484.324219 82.375 484.324219 85.632812 C 484.324219 89.394531 487.539062 91.820312 492.855469 91.820312 C 497.996094 91.820312 502.429688 89.472656 504.132812 84.878906 Z M 504.132812 84.878906"/><path fill="#90F" d="M 554.792969 96.414062 C 553.332031 97.445312 551.742188 98.21875 550.027344 98.734375 C 548.3125 99.246094 546.558594 99.476562 544.769531 99.417969 C 535.003906 99.417969 529.398438 94.230469 529.398438 84.382812 L 529.398438 62.902344 L 522.058594 62.902344 L 522.058594 54.546875 L 529.398438 54.546875 L 529.398438 44.363281 L 539.839844 44.363281 L 539.839844 54.546875 L 551.789062 54.546875 L 551.789062 62.902344 L 539.839844 62.902344 L 539.839844 84.125 C 539.839844 88.476562 542.007812 90.808594 546.023438 90.808594 C 548.183594 90.871094 550.132812 90.257812 551.871094 88.976562 Z M 554.792969 96.414062"/><path fill="#90F" d="M 603.722656 79.835938 L 568.65625 79.835938 C 569.910156 86.359375 575.339844 90.535156 583.113281 90.535156 C 584.234375 90.578125 585.347656 90.503906 586.457031 90.316406 C 587.5625 90.125 588.636719 89.824219 589.679688 89.410156 C 590.722656 88.992188 591.710938 88.476562 592.644531 87.851562 C 593.582031 87.230469 594.441406 86.519531 595.226562 85.714844 L 600.816406 92.140625 C 596.816406 96.960938 590.550781 99.417969 582.855469 99.417969 C 567.917969 99.417969 558.214844 89.78125 558.214844 76.527344 C 558.214844 63.269531 568 53.710938 581.28125 53.710938 C 594.308594 53.710938 603.769531 62.820312 603.769531 76.78125 C 603.835938 77.617188 603.722656 78.871094 603.722656 79.835938 Z M 568.578125 72.925781 L 593.890625 72.925781 C 593.8125 72.164062 593.660156 71.414062 593.4375 70.675781 C 593.214844 69.941406 592.925781 69.234375 592.566406 68.554688 C 592.210938 67.875 591.792969 67.234375 591.3125 66.632812 C 590.835938 66.03125 590.304688 65.480469 589.722656 64.980469 C 589.136719 64.480469 588.511719 64.039062 587.847656 63.65625 C 587.179688 63.273438 586.484375 62.960938 585.757812 62.710938 C 585.03125 62.460938 584.285156 62.28125 583.527344 62.175781 C 582.765625 62.066406 582 62.03125 581.234375 62.066406 C 580.46875 62.042969 579.707031 62.085938 578.953125 62.203125 C 578.195312 62.320312 577.457031 62.503906 576.734375 62.757812 C 576.011719 63.011719 575.320312 63.328125 574.65625 63.710938 C 573.996094 64.09375 573.375 64.535156 572.792969 65.035156 C 572.210938 65.53125 571.683594 66.078125 571.203125 66.675781 C 570.722656 67.273438 570.304688 67.910156 569.945312 68.585938 C 569.582031 69.257812 569.289062 69.960938 569.058594 70.691406 C 568.828125 71.421875 568.667969 72.167969 568.578125 72.925781 Z M 568.578125 72.925781"/><g clip-path="url(#a)"><path fill="#90F" d="M 657.53125 36.84375 L 657.53125 98.824219 L 647.507812 98.824219 L 647.507812 93.074219 C 646.597656 94.128906 645.582031 95.066406 644.457031 95.886719 C 643.332031 96.710938 642.132812 97.398438 640.851562 97.945312 C 639.570312 98.496094 638.246094 98.894531 636.875 99.144531 C 635.503906 99.394531 634.125 99.484375 632.730469 99.417969 C 619.785156 99.417969 610.242188 90.390625 610.242188 76.527344 C 610.242188 62.660156 619.882812 53.710938 632.730469 53.710938 C 634.078125 53.652344 635.410156 53.742188 636.738281 53.980469 C 638.0625 54.21875 639.34375 54.597656 640.585938 55.117188 C 641.828125 55.636719 642.996094 56.289062 644.09375 57.066406 C 645.191406 57.847656 646.191406 58.738281 647.09375 59.738281 L 647.09375 36.84375 Z M 647.269531 76.527344 C 647.269531 68.011719 641.503906 62.566406 633.984375 62.566406 C 626.46875 62.566406 620.699219 68.011719 620.699219 76.527344 C 620.699219 85.039062 626.46875 90.46875 633.984375 90.46875 C 641.503906 90.46875 647.269531 85.039062 647.269531 76.527344 Z M 647.269531 76.527344"/></g><g clip-path="url(#b)"><g clip-path="url(#c)"><path fill="url(#d)" d="M 89.933594 47.703125 L 89.933594 95.449219 L 117.722656 95.449219 L 117.722656 47.703125 Z M 89.933594 47.703125"/></g></g><g clip-path="url(#e)"><g clip-path="url(#f)"><path fill="url(#g)" d="M 62.398438 20.859375 L 62.398438 122.695312 L 138.265625 122.695312 L 138.265625 20.859375 Z M 62.398438 20.859375"/></g></g><g clip-path="url(#h)"><path fill="#06F" d="M 117.191406 71.800781 C 117.183594 71.058594 117.445312 70.425781 117.976562 69.90625 L 153.957031 33.808594 C 154.214844 33.5625 154.507812 33.375 154.832031 33.246094 C 155.160156 33.113281 155.5 33.046875 155.855469 33.046875 C 156.207031 33.046875 156.546875 33.113281 156.875 33.246094 C 157.203125 33.375 157.496094 33.5625 157.75 33.808594 L 161.460938 37.503906 L 169.910156 12.359375 L 144.753906 20.746094 L 148.511719 24.503906 C 149.042969 25.027344 149.304688 25.65625 149.300781 26.402344 C 149.308594 27.144531 149.046875 27.777344 148.511719 28.296875 L 105.078125 71.800781 L 152.480469 119.164062 L 157.976562 113.652344 L 117.976562 73.648438 C 117.460938 73.140625 117.199219 72.527344 117.191406 71.800781 Z M 117.191406 71.800781"/></g><g clip-path="url(#i)"><g clip-path="url(#j)"><path fill="url(#k)" d="M 130.191406 72.558594 L 130.191406 99.085938 L 165.054688 99.085938 L 165.054688 72.558594 Z M 130.191406 72.558594"/></g></g><g fill="#8C52FF"><g><g><path d="M 9.453125 -1.65625 L 9.453125 0 L 1.4375 0 L 1.4375 -10.6875 L 9.234375 -10.6875 L 9.234375 -9.015625 L 3.421875 -9.015625 L 3.421875 -6.25 L 8.578125 -6.25 L 8.578125 -4.609375 L 3.421875 -4.609375 L 3.421875 -1.65625 Z M 9.453125 -1.65625" transform="translate(207.707 128.047)"/></g></g></g><g fill="#8C52FF"><g><g><path d="M 1.25 -11.328125 L 3.15625 -11.328125 L 3.15625 0 L 1.25 0 Z M 1.25 -11.328125" transform="translate(217.93 128.047)"/></g></g></g><g fill="#8C52FF"><g><g><path d="M 8.921875 -4.03125 C 8.921875 -3.894531 8.910156 -3.707031 8.890625 -3.46875 L 2.484375 -3.46875 C 2.597656 -2.863281 2.890625 -2.382812 3.359375 -2.03125 C 3.835938 -1.6875 4.425781 -1.515625 5.125 -1.515625 C 6.019531 -1.515625 6.757812 -1.804688 7.34375 -2.390625 L 8.359375 -1.21875 C 7.992188 -0.78125 7.53125 -0.445312 6.96875 -0.21875 C 6.414062 0 5.785156 0.109375 5.078125 0.109375 C 4.179688 0.109375 3.390625 -0.0664062 2.703125 -0.421875 C 2.023438 -0.785156 1.5 -1.285156 1.125 -1.921875 C 0.757812 -2.554688 0.578125 -3.273438 0.578125 -4.078125 C 0.578125 -4.867188 0.753906 -5.582031 1.109375 -6.21875 C 1.472656 -6.851562 1.976562 -7.347656 2.625 -7.703125 C 3.269531 -8.066406 3.992188 -8.25 4.796875 -8.25 C 5.585938 -8.25 6.296875 -8.070312 6.921875 -7.71875 C 7.546875 -7.363281 8.035156 -6.867188 8.390625 -6.234375 C 8.742188 -5.597656 8.921875 -4.863281 8.921875 -4.03125 Z M 4.796875 -6.71875 C 4.179688 -6.71875 3.660156 -6.535156 3.234375 -6.171875 C 2.816406 -5.816406 2.5625 -5.335938 2.46875 -4.734375 L 7.09375 -4.734375 C 7.007812 -5.328125 6.757812 -5.804688 6.34375 -6.171875 C 5.925781 -6.535156 5.410156 -6.71875 4.796875 -6.71875 Z M 4.796875 -6.71875" transform="translate(222.339 128.047)"/></g></g></g><g fill="#8C52FF"><g><g><path d="M 8.890625 -8.15625 L 5.390625 0 L 3.421875 0 L -0.078125 -8.15625 L 1.90625 -8.15625 L 4.4375 -2.109375 L 7.046875 -8.15625 Z M 8.890625 -8.15625" transform="translate(231.83 128.047)"/></g></g></g><g fill="#8C52FF"><g><g><path d="M 4.359375 -8.25 C 5.566406 -8.25 6.488281 -7.957031 7.125 -7.375 C 7.757812 -6.800781 8.078125 -5.9375 8.078125 -4.78125 L 8.078125 0 L 6.28125 0 L 6.28125 -1 C 6.039062 -0.632812 5.703125 -0.359375 5.265625 -0.171875 C 4.835938 0.015625 4.316406 0.109375 3.703125 0.109375 C 3.097656 0.109375 2.566406 0.00390625 2.109375 -0.203125 C 1.648438 -0.410156 1.296875 -0.703125 1.046875 -1.078125 C 0.796875 -1.453125 0.671875 -1.867188 0.671875 -2.328125 C 0.671875 -3.066406 0.941406 -3.65625 1.484375 -4.09375 C 2.035156 -4.539062 2.894531 -4.765625 4.0625 -4.765625 L 6.171875 -4.765625 L 6.171875 -4.890625 C 6.171875 -5.453125 6 -5.882812 5.65625 -6.1875 C 5.3125 -6.5 4.804688 -6.65625 4.140625 -6.65625 C 3.679688 -6.65625 3.226562 -6.582031 2.78125 -6.4375 C 2.34375 -6.300781 1.96875 -6.101562 1.65625 -5.84375 L 0.921875 -7.234375 C 1.347656 -7.554688 1.859375 -7.804688 2.453125 -7.984375 C 3.054688 -8.160156 3.691406 -8.25 4.359375 -8.25 Z M 4.109375 -1.28125 C 4.585938 -1.28125 5.007812 -1.390625 5.375 -1.609375 C 5.75 -1.828125 6.015625 -2.140625 6.171875 -2.546875 L 6.171875 -3.5 L 4.203125 -3.5 C 3.097656 -3.5 2.546875 -3.132812 2.546875 -2.40625 C 2.546875 -2.0625 2.679688 -1.785156 2.953125 -1.578125 C 3.234375 -1.378906 3.617188 -1.28125 4.109375 -1.28125 Z M 4.109375 -1.28125" transform="translate(240.648 128.047)"/></g></g></g><g fill="#8C52FF"><g><g><path d="M 6.15625 -0.4375 C 5.925781 -0.257812 5.648438 -0.125 5.328125 -0.03125 C 5.015625 0.0625 4.675781 0.109375 4.3125 0.109375 C 3.425781 0.109375 2.738281 -0.125 2.25 -0.59375 C 1.757812 -1.0625 1.515625 -1.742188 1.515625 -2.640625 L 1.515625 -6.5625 L 0.171875 -6.5625 L 0.171875 -8.09375 L 1.515625 -8.09375 L 1.515625 -9.953125 L 3.421875 -9.953125 L 3.421875 -8.09375 L 5.609375 -8.09375 L 5.609375 -6.5625 L 3.421875 -6.5625 L 3.421875 -2.6875 C 3.421875 -2.289062 3.515625 -1.988281 3.703125 -1.78125 C 3.898438 -1.570312 4.179688 -1.46875 4.546875 -1.46875 C 4.972656 -1.46875 5.332031 -1.578125 5.625 -1.796875 Z M 6.15625 -0.4375" transform="translate(249.91 128.047)"/></g></g></g><g fill="#8C52FF"><g><g><path d="M 8.921875 -4.03125 C 8.921875 -3.894531 8.910156 -3.707031 8.890625 -3.46875 L 2.484375 -3.46875 C 2.597656 -2.863281 2.890625 -2.382812 3.359375 -2.03125 C 3.835938 -1.6875 4.425781 -1.515625 5.125 -1.515625 C 6.019531 -1.515625 6.757812 -1.804688 7.34375 -2.390625 L 8.359375 -1.21875 C 7.992188 -0.78125 7.53125 -0.445312 6.96875 -0.21875 C 6.414062 0 5.785156 0.109375 5.078125 0.109375 C 4.179688 0.109375 3.390625 -0.0664062 2.703125 -0.421875 C 2.023438 -0.785156 1.5 -1.285156 1.125 -1.921875 C 0.757812 -2.554688 0.578125 -3.273438 0.578125 -4.078125 C 0.578125 -4.867188 0.753906 -5.582031 1.109375 -6.21875 C 1.472656 -6.851562 1.976562 -7.347656 2.625 -7.703125 C 3.269531 -8.066406 3.992188 -8.25 4.796875 -8.25 C 5.585938 -8.25 6.296875 -8.070312 6.921875 -7.71875 C 7.546875 -7.363281 8.035156 -6.867188 8.390625 -6.234375 C 8.742188 -5.597656 8.921875 -4.863281 8.921875 -4.03125 Z M 4.796875 -6.71875 C 4.179688 -6.71875 3.660156 -6.535156 3.234375 -6.171875 C 2.816406 -5.816406 2.5625 -5.335938 2.46875 -4.734375 L 7.09375 -4.734375 C 7.007812 -5.328125 6.757812 -5.804688 6.34375 -6.171875 C 5.925781 -6.535156 5.410156 -6.71875 4.796875 -6.71875 Z M 4.796875 -6.71875" transform="translate(256.38 128.047)"/></g></g></g><g fill="#8C52FF"><g><g><path d="M 8.890625 -8.15625 L 5.0625 0.65625 C 4.707031 1.539062 4.273438 2.160156 3.765625 2.515625 C 3.253906 2.878906 2.640625 3.0625 1.921875 3.0625 C 1.515625 3.0625 1.113281 2.992188 0.71875 2.859375 C 0.320312 2.734375 -0.00390625 2.554688 -0.265625 2.328125 L 0.5 0.921875 C 0.6875 1.085938 0.90625 1.222656 1.15625 1.328125 C 1.40625 1.429688 1.65625 1.484375 1.90625 1.484375 C 2.238281 1.484375 2.515625 1.394531 2.734375 1.21875 C 2.953125 1.050781 3.15625 0.757812 3.34375 0.34375 L 3.484375 0.03125 L -0.078125 -8.15625 L 1.90625 -8.15625 L 4.46875 -2.125 L 7.046875 -8.15625 Z M 8.890625 -8.15625" transform="translate(270.08 128.047)"/></g></g></g><g fill="#8C52FF"><g><g><path d="M 4.921875 0.109375 C 4.085938 0.109375 3.335938 -0.0664062 2.671875 -0.421875 C 2.015625 -0.785156 1.5 -1.285156 1.125 -1.921875 C 0.757812 -2.554688 0.578125 -3.273438 0.578125 -4.078125 C 0.578125 -4.878906 0.757812 -5.59375 1.125 -6.21875 C 1.5 -6.851562 2.015625 -7.347656 2.671875 -7.703125 C 3.335938 -8.066406 4.085938 -8.25 4.921875 -8.25 C 5.753906 -8.25 6.5 -8.066406 7.15625 -7.703125 C 7.820312 -7.347656 8.335938 -6.851562 8.703125 -6.21875 C 9.078125 -5.59375 9.265625 -4.878906 9.265625 -4.078125 C 9.265625 -3.273438 9.078125 -2.554688 8.703125 -1.921875 C 8.335938 -1.285156 7.820312 -0.785156 7.15625 -0.421875 C 6.5 -0.0664062 5.753906 0.109375 4.921875 0.109375 Z M 4.921875 -1.53125 C 5.617188 -1.53125 6.195312 -1.765625 6.65625 -2.234375 C 7.113281 -2.703125 7.34375 -3.316406 7.34375 -4.078125 C 7.34375 -4.835938 7.113281 -5.453125 6.65625 -5.921875 C 6.195312 -6.390625 5.617188 -6.625 4.921875 -6.625 C 4.210938 -6.625 3.628906 -6.390625 3.171875 -5.921875 C 2.722656 -5.453125 2.5 -4.835938 2.5 -4.078125 C 2.5 -3.316406 2.722656 -2.703125 3.171875 -2.234375 C 3.628906 -1.765625 4.210938 -1.53125 4.921875 -1.53125 Z M 4.921875 -1.53125" transform="translate(278.9 128.047)"/></g></g></g><g fill="#8C52FF"><g><g><path d="M 9.140625 -8.15625 L 9.140625 0 L 7.328125 0 L 7.328125 -1.03125 C 7.023438 -0.664062 6.644531 -0.382812 6.1875 -0.1875 C 5.726562 0.0078125 5.234375 0.109375 4.703125 0.109375 C 3.609375 0.109375 2.75 -0.191406 2.125 -0.796875 C 1.5 -1.398438 1.1875 -2.300781 1.1875 -3.5 L 1.1875 -8.15625 L 3.09375 -8.15625 L 3.09375 -3.75 C 3.09375 -3.019531 3.257812 -2.472656 3.59375 -2.109375 C 3.925781 -1.753906 4.394531 -1.578125 5 -1.578125 C 5.6875 -1.578125 6.226562 -1.785156 6.625 -2.203125 C 7.03125 -2.628906 7.234375 -3.238281 7.234375 -4.03125 L 7.234375 -8.15625 Z M 9.140625 -8.15625" transform="translate(288.741 128.047)"/></g></g></g><g fill="#8C52FF"><g><g><path d="M 3.0625 -6.96875 C 3.613281 -7.820312 4.582031 -8.25 5.96875 -8.25 L 5.96875 -6.421875 C 5.800781 -6.453125 5.65625 -6.46875 5.53125 -6.46875 C 4.78125 -6.46875 4.195312 -6.25 3.78125 -5.8125 C 3.363281 -5.382812 3.15625 -4.765625 3.15625 -3.953125 L 3.15625 0 L 1.25 0 L 1.25 -8.15625 L 3.0625 -8.15625 Z M 3.0625 -6.96875" transform="translate(299.132 128.047)"/></g></g></g><g fill="#8C52FF"><g><g><path d="M 5.765625 -8.25 C 6.566406 -8.25 7.28125 -8.070312 7.90625 -7.71875 C 8.53125 -7.375 9.019531 -6.882812 9.375 -6.25 C 9.726562 -5.625 9.90625 -4.898438 9.90625 -4.078125 C 9.90625 -3.253906 9.726562 -2.523438 9.375 -1.890625 C 9.019531 -1.253906 8.53125 -0.757812 7.90625 -0.40625 C 7.28125 -0.0625 6.566406 0.109375 5.765625 0.109375 C 4.671875 0.109375 3.800781 -0.257812 3.15625 -1 L 3.15625 2.96875 L 1.25 2.96875 L 1.25 -8.15625 L 3.0625 -8.15625 L 3.0625 -7.078125 C 3.382812 -7.460938 3.773438 -7.753906 4.234375 -7.953125 C 4.703125 -8.148438 5.210938 -8.25 5.765625 -8.25 Z M 5.5625 -1.53125 C 6.257812 -1.53125 6.832031 -1.765625 7.28125 -2.234375 C 7.738281 -2.703125 7.96875 -3.316406 7.96875 -4.078125 C 7.96875 -4.835938 7.738281 -5.453125 7.28125 -5.921875 C 6.832031 -6.390625 6.257812 -6.625 5.5625 -6.625 C 5.101562 -6.625 4.6875 -6.519531 4.3125 -6.3125 C 3.945312 -6.101562 3.65625 -5.804688 3.4375 -5.421875 C 3.226562 -5.035156 3.125 -4.585938 3.125 -4.078125 C 3.125 -3.566406 3.226562 -3.117188 3.4375 -2.734375 C 3.65625 -2.347656 3.945312 -2.050781 4.3125 -1.84375 C 4.6875 -1.632812 5.101562 -1.53125 5.5625 -1.53125 Z M 5.5625 -1.53125" transform="translate(309.752 128.047)"/></g></g></g><g fill="#8C52FF"><g><g><path d="M 3.0625 -6.96875 C 3.613281 -7.820312 4.582031 -8.25 5.96875 -8.25 L 5.96875 -6.421875 C 5.800781 -6.453125 5.65625 -6.46875 5.53125 -6.46875 C 4.78125 -6.46875 4.195312 -6.25 3.78125 -5.8125 C 3.363281 -5.382812 3.15625 -4.765625 3.15625 -3.953125 L 3.15625 0 L 1.25 0 L 1.25 -8.15625 L 3.0625 -8.15625 Z M 3.0625 -6.96875" transform="translate(320.218 128.047)"/></g></g></g><g fill="#8C52FF"><g><g><path d="M 4.921875 0.109375 C 4.085938 0.109375 3.335938 -0.0664062 2.671875 -0.421875 C 2.015625 -0.785156 1.5 -1.285156 1.125 -1.921875 C 0.757812 -2.554688 0.578125 -3.273438 0.578125 -4.078125 C 0.578125 -4.878906 0.757812 -5.59375 1.125 -6.21875 C 1.5 -6.851562 2.015625 -7.347656 2.671875 -7.703125 C 3.335938 -8.066406 4.085938 -8.25 4.921875 -8.25 C 5.753906 -8.25 6.5 -8.066406 7.15625 -7.703125 C 7.820312 -7.347656 8.335938 -6.851562 8.703125 -6.21875 C 9.078125 -5.59375 9.265625 -4.878906 9.265625 -4.078125 C 9.265625 -3.273438 9.078125 -2.554688 8.703125 -1.921875 C 8.335938 -1.285156 7.820312 -0.785156 7.15625 -0.421875 C 6.5 -0.0664062 5.753906 0.109375 4.921875 0.109375 Z M 4.921875 -1.53125 C 5.617188 -1.53125 6.195312 -1.765625 6.65625 -2.234375 C 7.113281 -2.703125 7.34375 -3.316406 7.34375 -4.078125 C 7.34375 -4.835938 7.113281 -5.453125 6.65625 -5.921875 C 6.195312 -6.390625 5.617188 -6.625 4.921875 -6.625 C 4.210938 -6.625 3.628906 -6.390625 3.171875 -5.921875 C 2.722656 -5.453125 2.5 -4.835938 2.5 -4.078125 C 2.5 -3.316406 2.722656 -2.703125 3.171875 -2.234375 C 3.628906 -1.765625 4.210938 -1.53125 4.921875 -1.53125 Z M 4.921875 -1.53125" transform="translate(326.627 128.047)"/></g></g></g><g fill="#8C52FF"><g><g><path d="M 0.40625 3.0625 C -0.394531 3.0625 -1.003906 2.90625 -1.421875 2.59375 L -0.875 1.171875 C -0.582031 1.390625 -0.207031 1.5 0.25 1.5 C 0.601562 1.5 0.875 1.390625 1.0625 1.171875 C 1.25 0.953125 1.34375 0.628906 1.34375 0.203125 L 1.34375 -8.15625 L 3.25 -8.15625 L 3.25 0.15625 C 3.25 1.0625 3 1.769531 2.5 2.28125 C 2 2.800781 1.300781 3.0625 0.40625 3.0625 Z M 2.296875 -9.5 C 1.953125 -9.5 1.660156 -9.609375 1.421875 -9.828125 C 1.191406 -10.046875 1.078125 -10.316406 1.078125 -10.640625 C 1.078125 -10.960938 1.191406 -11.234375 1.421875 -11.453125 C 1.660156 -11.671875 1.953125 -11.78125 2.296875 -11.78125 C 2.640625 -11.78125 2.925781 -11.675781 3.15625 -11.46875 C 3.394531 -11.257812 3.515625 -11 3.515625 -10.6875 C 3.515625 -10.351562 3.398438 -10.070312 3.171875 -9.84375 C 2.941406 -9.613281 2.648438 -9.5 2.296875 -9.5 Z M 2.296875 -9.5" transform="translate(336.468 128.047)"/></g></g></g><g fill="#8C52FF"><g><g><path d="M 8.921875 -4.03125 C 8.921875 -3.894531 8.910156 -3.707031 8.890625 -3.46875 L 2.484375 -3.46875 C 2.597656 -2.863281 2.890625 -2.382812 3.359375 -2.03125 C 3.835938 -1.6875 4.425781 -1.515625 5.125 -1.515625 C 6.019531 -1.515625 6.757812 -1.804688 7.34375 -2.390625 L 8.359375 -1.21875 C 7.992188 -0.78125 7.53125 -0.445312 6.96875 -0.21875 C 6.414062 0 5.785156 0.109375 5.078125 0.109375 C 4.179688 0.109375 3.390625 -0.0664062 2.703125 -0.421875 C 2.023438 -0.785156 1.5 -1.285156 1.125 -1.921875 C 0.757812 -2.554688 0.578125 -3.273438 0.578125 -4.078125 C 0.578125 -4.867188 0.753906 -5.582031 1.109375 -6.21875 C 1.472656 -6.851562 1.976562 -7.347656 2.625 -7.703125 C 3.269531 -8.066406 3.992188 -8.25 4.796875 -8.25 C 5.585938 -8.25 6.296875 -8.070312 6.921875 -7.71875 C 7.546875 -7.363281 8.035156 -6.867188 8.390625 -6.234375 C 8.742188 -5.597656 8.921875 -4.863281 8.921875 -4.03125 Z M 4.796875 -6.71875 C 4.179688 -6.71875 3.660156 -6.535156 3.234375 -6.171875 C 2.816406 -5.816406 2.5625 -5.335938 2.46875 -4.734375 L 7.09375 -4.734375 C 7.007812 -5.328125 6.757812 -5.804688 6.34375 -6.171875 C 5.925781 -6.535156 5.410156 -6.71875 4.796875 -6.71875 Z M 4.796875 -6.71875" transform="translate(340.97 128.047)"/></g></g></g><g fill="#8C52FF"><g><g><path d="M 4.984375 0.109375 C 4.140625 0.109375 3.378906 -0.0664062 2.703125 -0.421875 C 2.035156 -0.785156 1.515625 -1.285156 1.140625 -1.921875 C 0.765625 -2.554688 0.578125 -3.273438 0.578125 -4.078125 C 0.578125 -4.878906 0.765625 -5.59375 1.140625 -6.21875 C 1.515625 -6.851562 2.035156 -7.347656 2.703125 -7.703125 C 3.367188 -8.066406 4.128906 -8.25 4.984375 -8.25 C 5.796875 -8.25 6.503906 -8.082031 7.109375 -7.75 C 7.710938 -7.425781 8.164062 -6.957031 8.46875 -6.34375 L 7 -5.5 C 6.769531 -5.875 6.476562 -6.15625 6.125 -6.34375 C 5.78125 -6.53125 5.398438 -6.625 4.984375 -6.625 C 4.265625 -6.625 3.671875 -6.390625 3.203125 -5.921875 C 2.734375 -5.460938 2.5 -4.847656 2.5 -4.078125 C 2.5 -3.304688 2.726562 -2.6875 3.1875 -2.21875 C 3.65625 -1.757812 4.253906 -1.53125 4.984375 -1.53125 C 5.398438 -1.53125 5.78125 -1.625 6.125 -1.8125 C 6.476562 -2 6.769531 -2.28125 7 -2.65625 L 8.46875 -1.796875 C 8.15625 -1.191406 7.695312 -0.722656 7.09375 -0.390625 C 6.488281 -0.0546875 5.785156 0.109375 4.984375 0.109375 Z M 4.984375 0.109375" transform="translate(350.46 128.047)"/></g></g></g><g fill="#8C52FF"><g><g><path d="M 6.15625 -0.4375 C 5.925781 -0.257812 5.648438 -0.125 5.328125 -0.03125 C 5.015625 0.0625 4.675781 0.109375 4.3125 0.109375 C 3.425781 0.109375 2.738281 -0.125 2.25 -0.59375 C 1.757812 -1.0625 1.515625 -1.742188 1.515625 -2.640625 L 1.515625 -6.5625 L 0.171875 -6.5625 L 0.171875 -8.09375 L 1.515625 -8.09375 L 1.515625 -9.953125 L 3.421875 -9.953125 L 3.421875 -8.09375 L 5.609375 -8.09375 L 5.609375 -6.5625 L 3.421875 -6.5625 L 3.421875 -2.6875 C 3.421875 -2.289062 3.515625 -1.988281 3.703125 -1.78125 C 3.898438 -1.570312 4.179688 -1.46875 4.546875 -1.46875 C 4.972656 -1.46875 5.332031 -1.578125 5.625 -1.796875 Z M 6.15625 -0.4375" transform="translate(359.324 128.047)"/></g></g></g><g fill="#8C52FF"><g><g><path d="M 13.96875 -8.15625 L 10.953125 0 L 9.125 0 L 7.015625 -5.625 L 4.890625 0 L 3.046875 0 L 0.0625 -8.15625 L 1.859375 -8.15625 L 4.015625 -2.140625 L 6.265625 -8.15625 L 7.859375 -8.15625 L 10.0625 -2.109375 L 12.28125 -8.15625 Z M 13.96875 -8.15625" transform="translate(370.005 128.047)"/></g></g></g><g fill="#8C52FF"><g><g><path d="M 1.25 -8.15625 L 3.15625 -8.15625 L 3.15625 0 L 1.25 0 Z M 2.21875 -9.5 C 1.875 -9.5 1.582031 -9.609375 1.34375 -9.828125 C 1.113281 -10.046875 1 -10.316406 1 -10.640625 C 1 -10.960938 1.113281 -11.234375 1.34375 -11.453125 C 1.582031 -11.671875 1.875 -11.78125 2.21875 -11.78125 C 2.5625 -11.78125 2.847656 -11.675781 3.078125 -11.46875 C 3.316406 -11.257812 3.4375 -11 3.4375 -10.6875 C 3.4375 -10.351562 3.320312 -10.070312 3.09375 -9.84375 C 2.863281 -9.613281 2.570312 -9.5 2.21875 -9.5 Z M 2.21875 -9.5" transform="translate(384.027 128.047)"/></g></g></g><g fill="#8C52FF"><g><g><path d="M 6.15625 -0.4375 C 5.925781 -0.257812 5.648438 -0.125 5.328125 -0.03125 C 5.015625 0.0625 4.675781 0.109375 4.3125 0.109375 C 3.425781 0.109375 2.738281 -0.125 2.25 -0.59375 C 1.757812 -1.0625 1.515625 -1.742188 1.515625 -2.640625 L 1.515625 -6.5625 L 0.171875 -6.5625 L 0.171875 -8.09375 L 1.515625 -8.09375 L 1.515625 -9.953125 L 3.421875 -9.953125 L 3.421875 -8.09375 L 5.609375 -8.09375 L 5.609375 -6.5625 L 3.421875 -6.5625 L 3.421875 -2.6875 C 3.421875 -2.289062 3.515625 -1.988281 3.703125 -1.78125 C 3.898438 -1.570312 4.179688 -1.46875 4.546875 -1.46875 C 4.972656 -1.46875 5.332031 -1.578125 5.625 -1.796875 Z M 6.15625 -0.4375" transform="translate(388.437 128.047)"/></g></g></g><g fill="#8C52FF"><g><g><path d="M 5.875 -8.25 C 6.90625 -8.25 7.726562 -7.945312 8.34375 -7.34375 C 8.96875 -6.738281 9.28125 -5.847656 9.28125 -4.671875 L 9.28125 0 L 7.375 0 L 7.375 -4.421875 C 7.375 -5.140625 7.203125 -5.675781 6.859375 -6.03125 C 6.523438 -6.394531 6.050781 -6.578125 5.4375 -6.578125 C 4.726562 -6.578125 4.171875 -6.363281 3.765625 -5.9375 C 3.359375 -5.519531 3.15625 -4.914062 3.15625 -4.125 L 3.15625 0 L 1.25 0 L 1.25 -11.328125 L 3.15625 -11.328125 L 3.15625 -7.203125 C 3.476562 -7.535156 3.867188 -7.789062 4.328125 -7.96875 C 4.785156 -8.15625 5.300781 -8.25 5.875 -8.25 Z M 5.875 -8.25" transform="translate(394.906 128.047)"/></g></g></g><g fill="#8C52FF"><g><g><path d="M 3.765625 0.109375 C 3.109375 0.109375 2.460938 0.0234375 1.828125 -0.140625 C 1.203125 -0.316406 0.703125 -0.539062 0.328125 -0.8125 L 1.046875 -2.265625 C 1.421875 -2.015625 1.863281 -1.816406 2.375 -1.671875 C 2.882812 -1.523438 3.390625 -1.453125 3.890625 -1.453125 C 5.035156 -1.453125 5.609375 -1.75 5.609375 -2.34375 C 5.609375 -2.632812 5.460938 -2.832031 5.171875 -2.9375 C 4.878906 -3.050781 4.410156 -3.160156 3.765625 -3.265625 C 3.097656 -3.367188 2.550781 -3.484375 2.125 -3.609375 C 1.707031 -3.742188 1.34375 -3.976562 1.03125 -4.3125 C 0.71875 -4.644531 0.5625 -5.101562 0.5625 -5.6875 C 0.5625 -6.46875 0.882812 -7.085938 1.53125 -7.546875 C 2.175781 -8.015625 3.050781 -8.25 4.15625 -8.25 C 4.707031 -8.25 5.265625 -8.179688 5.828125 -8.046875 C 6.390625 -7.921875 6.847656 -7.753906 7.203125 -7.546875 L 6.46875 -6.09375 C 5.78125 -6.5 5.003906 -6.703125 4.140625 -6.703125 C 3.578125 -6.703125 3.148438 -6.617188 2.859375 -6.453125 C 2.566406 -6.285156 2.421875 -6.0625 2.421875 -5.78125 C 2.421875 -5.476562 2.578125 -5.265625 2.890625 -5.140625 C 3.203125 -5.015625 3.679688 -4.894531 4.328125 -4.78125 C 4.984375 -4.675781 5.519531 -4.554688 5.9375 -4.421875 C 6.351562 -4.296875 6.710938 -4.070312 7.015625 -3.75 C 7.316406 -3.4375 7.46875 -2.988281 7.46875 -2.40625 C 7.46875 -1.644531 7.132812 -1.035156 6.46875 -0.578125 C 5.8125 -0.117188 4.910156 0.109375 3.765625 0.109375 Z M 3.765625 0.109375" transform="translate(409.569 128.047)"/></g></g></g><g fill="#8C52FF"><g><g><path d="M 8.921875 -4.03125 C 8.921875 -3.894531 8.910156 -3.707031 8.890625 -3.46875 L 2.484375 -3.46875 C 2.597656 -2.863281 2.890625 -2.382812 3.359375 -2.03125 C 3.835938 -1.6875 4.425781 -1.515625 5.125 -1.515625 C 6.019531 -1.515625 6.757812 -1.804688 7.34375 -2.390625 L 8.359375 -1.21875 C 7.992188 -0.78125 7.53125 -0.445312 6.96875 -0.21875 C 6.414062 0 5.785156 0.109375 5.078125 0.109375 C 4.179688 0.109375 3.390625 -0.0664062 2.703125 -0.421875 C 2.023438 -0.785156 1.5 -1.285156 1.125 -1.921875 C 0.757812 -2.554688 0.578125 -3.273438 0.578125 -4.078125 C 0.578125 -4.867188 0.753906 -5.582031 1.109375 -6.21875 C 1.472656 -6.851562 1.976562 -7.347656 2.625 -7.703125 C 3.269531 -8.066406 3.992188 -8.25 4.796875 -8.25 C 5.585938 -8.25 6.296875 -8.070312 6.921875 -7.71875 C 7.546875 -7.363281 8.035156 -6.867188 8.390625 -6.234375 C 8.742188 -5.597656 8.921875 -4.863281 8.921875 -4.03125 Z M 4.796875 -6.71875 C 4.179688 -6.71875 3.660156 -6.535156 3.234375 -6.171875 C 2.816406 -5.816406 2.5625 -5.335938 2.46875 -4.734375 L 7.09375 -4.734375 C 7.007812 -5.328125 6.757812 -5.804688 6.34375 -6.171875 C 5.925781 -6.535156 5.410156 -6.71875 4.796875 -6.71875 Z M 4.796875 -6.71875" transform="translate(417.427 128.047)"/></g></g></g><g fill="#8C52FF"><g><g><path d="M 4.359375 -8.25 C 5.566406 -8.25 6.488281 -7.957031 7.125 -7.375 C 7.757812 -6.800781 8.078125 -5.9375 8.078125 -4.78125 L 8.078125 0 L 6.28125 0 L 6.28125 -1 C 6.039062 -0.632812 5.703125 -0.359375 5.265625 -0.171875 C 4.835938 0.015625 4.316406 0.109375 3.703125 0.109375 C 3.097656 0.109375 2.566406 0.00390625 2.109375 -0.203125 C 1.648438 -0.410156 1.296875 -0.703125 1.046875 -1.078125 C 0.796875 -1.453125 0.671875 -1.867188 0.671875 -2.328125 C 0.671875 -3.066406 0.941406 -3.65625 1.484375 -4.09375 C 2.035156 -4.539062 2.894531 -4.765625 4.0625 -4.765625 L 6.171875 -4.765625 L 6.171875 -4.890625 C 6.171875 -5.453125 6 -5.882812 5.65625 -6.1875 C 5.3125 -6.5 4.804688 -6.65625 4.140625 -6.65625 C 3.679688 -6.65625 3.226562 -6.582031 2.78125 -6.4375 C 2.34375 -6.300781 1.96875 -6.101562 1.65625 -5.84375 L 0.921875 -7.234375 C 1.347656 -7.554688 1.859375 -7.804688 2.453125 -7.984375 C 3.054688 -8.160156 3.691406 -8.25 4.359375 -8.25 Z M 4.109375 -1.28125 C 4.585938 -1.28125 5.007812 -1.390625 5.375 -1.609375 C 5.75 -1.828125 6.015625 -2.140625 6.171875 -2.546875 L 6.171875 -3.5 L 4.203125 -3.5 C 3.097656 -3.5 2.546875 -3.132812 2.546875 -2.40625 C 2.546875 -2.0625 2.679688 -1.785156 2.953125 -1.578125 C 3.234375 -1.378906 3.617188 -1.28125 4.109375 -1.28125 Z M 4.109375 -1.28125" transform="translate(426.917 128.047)"/></g></g></g><g fill="#8C52FF"><g><g><path d="M 11.546875 -8.25 C 12.566406 -8.25 13.378906 -7.945312 13.984375 -7.34375 C 14.585938 -6.75 14.890625 -5.859375 14.890625 -4.671875 L 14.890625 0 L 12.96875 0 L 12.96875 -4.421875 C 12.96875 -5.140625 12.8125 -5.675781 12.5 -6.03125 C 12.1875 -6.394531 11.734375 -6.578125 11.140625 -6.578125 C 10.503906 -6.578125 9.988281 -6.363281 9.59375 -5.9375 C 9.207031 -5.519531 9.015625 -4.921875 9.015625 -4.140625 L 9.015625 0 L 7.109375 0 L 7.109375 -4.421875 C 7.109375 -5.140625 6.953125 -5.675781 6.640625 -6.03125 C 6.328125 -6.394531 5.875 -6.578125 5.28125 -6.578125 C 4.632812 -6.578125 4.117188 -6.367188 3.734375 -5.953125 C 3.347656 -5.535156 3.15625 -4.929688 3.15625 -4.140625 L 3.15625 0 L 1.25 0 L 1.25 -8.15625 L 3.0625 -8.15625 L 3.0625 -7.109375 C 3.375 -7.472656 3.757812 -7.753906 4.21875 -7.953125 C 4.675781 -8.148438 5.179688 -8.25 5.734375 -8.25 C 6.347656 -8.25 6.890625 -8.132812 7.359375 -7.90625 C 7.835938 -7.675781 8.210938 -7.335938 8.484375 -6.890625 C 8.816406 -7.316406 9.25 -7.648438 9.78125 -7.890625 C 10.3125 -8.128906 10.898438 -8.25 11.546875 -8.25 Z M 11.546875 -8.25" transform="translate(436.179 128.047)"/></g></g></g><g fill="#8C52FF"><g><g><path d="M 1.25 -11.328125 L 3.15625 -11.328125 L 3.15625 0 L 1.25 0 Z M 1.25 -11.328125" transform="translate(452.245 128.047)"/></g></g></g><g fill="#8C52FF"><g><g><path d="M 8.921875 -4.03125 C 8.921875 -3.894531 8.910156 -3.707031 8.890625 -3.46875 L 2.484375 -3.46875 C 2.597656 -2.863281 2.890625 -2.382812 3.359375 -2.03125 C 3.835938 -1.6875 4.425781 -1.515625 5.125 -1.515625 C 6.019531 -1.515625 6.757812 -1.804688 7.34375 -2.390625 L 8.359375 -1.21875 C 7.992188 -0.78125 7.53125 -0.445312 6.96875 -0.21875 C 6.414062 0 5.785156 0.109375 5.078125 0.109375 C 4.179688 0.109375 3.390625 -0.0664062 2.703125 -0.421875 C 2.023438 -0.785156 1.5 -1.285156 1.125 -1.921875 C 0.757812 -2.554688 0.578125 -3.273438 0.578125 -4.078125 C 0.578125 -4.867188 0.753906 -5.582031 1.109375 -6.21875 C 1.472656 -6.851562 1.976562 -7.347656 2.625 -7.703125 C 3.269531 -8.066406 3.992188 -8.25 4.796875 -8.25 C 5.585938 -8.25 6.296875 -8.070312 6.921875 -7.71875 C 7.546875 -7.363281 8.035156 -6.867188 8.390625 -6.234375 C 8.742188 -5.597656 8.921875 -4.863281 8.921875 -4.03125 Z M 4.796875 -6.71875 C 4.179688 -6.71875 3.660156 -6.535156 3.234375 -6.171875 C 2.816406 -5.816406 2.5625 -5.335938 2.46875 -4.734375 L 7.09375 -4.734375 C 7.007812 -5.328125 6.757812 -5.804688 6.34375 -6.171875 C 5.925781 -6.535156 5.410156 -6.71875 4.796875 -6.71875 Z M 4.796875 -6.71875" transform="translate(456.655 128.047)"/></g></g></g><g fill="#8C52FF"><g><g><path d="M 3.765625 0.109375 C 3.109375 0.109375 2.460938 0.0234375 1.828125 -0.140625 C 1.203125 -0.316406 0.703125 -0.539062 0.328125 -0.8125 L 1.046875 -2.265625 C 1.421875 -2.015625 1.863281 -1.816406 2.375 -1.671875 C 2.882812 -1.523438 3.390625 -1.453125 3.890625 -1.453125 C 5.035156 -1.453125 5.609375 -1.75 5.609375 -2.34375 C 5.609375 -2.632812 5.460938 -2.832031 5.171875 -2.9375 C 4.878906 -3.050781 4.410156 -3.160156 3.765625 -3.265625 C 3.097656 -3.367188 2.550781 -3.484375 2.125 -3.609375 C 1.707031 -3.742188 1.34375 -3.976562 1.03125 -4.3125 C 0.71875 -4.644531 0.5625 -5.101562 0.5625 -5.6875 C 0.5625 -6.46875 0.882812 -7.085938 1.53125 -7.546875 C 2.175781 -8.015625 3.050781 -8.25 4.15625 -8.25 C 4.707031 -8.25 5.265625 -8.179688 5.828125 -8.046875 C 6.390625 -7.921875 6.847656 -7.753906 7.203125 -7.546875 L 6.46875 -6.09375 C 5.78125 -6.5 5.003906 -6.703125 4.140625 -6.703125 C 3.578125 -6.703125 3.148438 -6.617188 2.859375 -6.453125 C 2.566406 -6.285156 2.421875 -6.0625 2.421875 -5.78125 C 2.421875 -5.476562 2.578125 -5.265625 2.890625 -5.140625 C 3.203125 -5.015625 3.679688 -4.894531 4.328125 -4.78125 C 4.984375 -4.675781 5.519531 -4.554688 5.9375 -4.421875 C 6.351562 -4.296875 6.710938 -4.070312 7.015625 -3.75 C 7.316406 -3.4375 7.46875 -2.988281 7.46875 -2.40625 C 7.46875 -1.644531 7.132812 -1.035156 6.46875 -0.578125 C 5.8125 -0.117188 4.910156 0.109375 3.765625 0.109375 Z M 3.765625 0.109375" transform="translate(466.145 128.047)"/></g></g></g><g fill="#8C52FF"><g><g><path d="M 3.765625 0.109375 C 3.109375 0.109375 2.460938 0.0234375 1.828125 -0.140625 C 1.203125 -0.316406 0.703125 -0.539062 0.328125 -0.8125 L 1.046875 -2.265625 C 1.421875 -2.015625 1.863281 -1.816406 2.375 -1.671875 C 2.882812 -1.523438 3.390625 -1.453125 3.890625 -1.453125 C 5.035156 -1.453125 5.609375 -1.75 5.609375 -2.34375 C 5.609375 -2.632812 5.460938 -2.832031 5.171875 -2.9375 C 4.878906 -3.050781 4.410156 -3.160156 3.765625 -3.265625 C 3.097656 -3.367188 2.550781 -3.484375 2.125 -3.609375 C 1.707031 -3.742188 1.34375 -3.976562 1.03125 -4.3125 C 0.71875 -4.644531 0.5625 -5.101562 0.5625 -5.6875 C 0.5625 -6.46875 0.882812 -7.085938 1.53125 -7.546875 C 2.175781 -8.015625 3.050781 -8.25 4.15625 -8.25 C 4.707031 -8.25 5.265625 -8.179688 5.828125 -8.046875 C 6.390625 -7.921875 6.847656 -7.753906 7.203125 -7.546875 L 6.46875 -6.09375 C 5.78125 -6.5 5.003906 -6.703125 4.140625 -6.703125 C 3.578125 -6.703125 3.148438 -6.617188 2.859375 -6.453125 C 2.566406 -6.285156 2.421875 -6.0625 2.421875 -5.78125 C 2.421875 -5.476562 2.578125 -5.265625 2.890625 -5.140625 C 3.203125 -5.015625 3.679688 -4.894531 4.328125 -4.78125 C 4.984375 -4.675781 5.519531 -4.554688 5.9375 -4.421875 C 6.351562 -4.296875 6.710938 -4.070312 7.015625 -3.75 C 7.316406 -3.4375 7.46875 -2.988281 7.46875 -2.40625 C 7.46875 -1.644531 7.132812 -1.035156 6.46875 -0.578125 C 5.8125 -0.117188 4.910156 0.109375 3.765625 0.109375 Z M 3.765625 0.109375" transform="translate(474.003 128.047)"/></g></g></g><g fill="#8C52FF"><g><g><path d="M 8.734375 -5.46875 L 10.609375 -5.46875 L 10.609375 -1.203125 C 10.054688 -0.765625 9.414062 -0.425781 8.6875 -0.1875 C 7.957031 0.0390625 7.203125 0.15625 6.421875 0.15625 C 5.335938 0.15625 4.359375 -0.078125 3.484375 -0.546875 C 2.609375 -1.023438 1.921875 -1.679688 1.421875 -2.515625 C 0.921875 -3.347656 0.671875 -4.289062 0.671875 -5.34375 C 0.671875 -6.394531 0.921875 -7.335938 1.421875 -8.171875 C 1.921875 -9.003906 2.609375 -9.65625 3.484375 -10.125 C 4.367188 -10.601562 5.359375 -10.84375 6.453125 -10.84375 C 7.347656 -10.84375 8.160156 -10.691406 8.890625 -10.390625 C 9.628906 -10.097656 10.25 -9.664062 10.75 -9.09375 L 9.5 -7.875 C 8.6875 -8.6875 7.703125 -9.09375 6.546875 -9.09375 C 5.796875 -9.09375 5.125 -8.9375 4.53125 -8.625 C 3.945312 -8.3125 3.488281 -7.867188 3.15625 -7.296875 C 2.832031 -6.722656 2.671875 -6.070312 2.671875 -5.34375 C 2.671875 -4.632812 2.832031 -3.992188 3.15625 -3.421875 C 3.488281 -2.847656 3.945312 -2.398438 4.53125 -2.078125 C 5.125 -1.753906 5.789062 -1.59375 6.53125 -1.59375 C 7.363281 -1.59375 8.097656 -1.773438 8.734375 -2.140625 Z M 8.734375 -5.46875" transform="translate(486.072 128.047)"/></g></g></g><g fill="#8C52FF"><g><g><path d="M 3.0625 -6.96875 C 3.613281 -7.820312 4.582031 -8.25 5.96875 -8.25 L 5.96875 -6.421875 C 5.800781 -6.453125 5.65625 -6.46875 5.53125 -6.46875 C 4.78125 -6.46875 4.195312 -6.25 3.78125 -5.8125 C 3.363281 -5.382812 3.15625 -4.765625 3.15625 -3.953125 L 3.15625 0 L 1.25 0 L 1.25 -8.15625 L 3.0625 -8.15625 Z M 3.0625 -6.96875" transform="translate(497.851 128.047)"/></g></g></g><g fill="#8C52FF"><g><g><path d="M 4.359375 -8.25 C 5.566406 -8.25 6.488281 -7.957031 7.125 -7.375 C 7.757812 -6.800781 8.078125 -5.9375 8.078125 -4.78125 L 8.078125 0 L 6.28125 0 L 6.28125 -1 C 6.039062 -0.632812 5.703125 -0.359375 5.265625 -0.171875 C 4.835938 0.015625 4.316406 0.109375 3.703125 0.109375 C 3.097656 0.109375 2.566406 0.00390625 2.109375 -0.203125 C 1.648438 -0.410156 1.296875 -0.703125 1.046875 -1.078125 C 0.796875 -1.453125 0.671875 -1.867188 0.671875 -2.328125 C 0.671875 -3.066406 0.941406 -3.65625 1.484375 -4.09375 C 2.035156 -4.539062 2.894531 -4.765625 4.0625 -4.765625 L 6.171875 -4.765625 L 6.171875 -4.890625 C 6.171875 -5.453125 6 -5.882812 5.65625 -6.1875 C 5.3125 -6.5 4.804688 -6.65625 4.140625 -6.65625 C 3.679688 -6.65625 3.226562 -6.582031 2.78125 -6.4375 C 2.34375 -6.300781 1.96875 -6.101562 1.65625 -5.84375 L 0.921875 -7.234375 C 1.347656 -7.554688 1.859375 -7.804688 2.453125 -7.984375 C 3.054688 -8.160156 3.691406 -8.25 4.359375 -8.25 Z M 4.109375 -1.28125 C 4.585938 -1.28125 5.007812 -1.390625 5.375 -1.609375 C 5.75 -1.828125 6.015625 -2.140625 6.171875 -2.546875 L 6.171875 -3.5 L 4.203125 -3.5 C 3.097656 -3.5 2.546875 -3.132812 2.546875 -2.40625 C 2.546875 -2.0625 2.679688 -1.785156 2.953125 -1.578125 C 3.234375 -1.378906 3.617188 -1.28125 4.109375 -1.28125 Z M 4.109375 -1.28125" transform="translate(504.26 128.047)"/></g></g></g><g fill="#8C52FF"><g><g><path d="M 5.765625 -8.25 C 6.566406 -8.25 7.28125 -8.070312 7.90625 -7.71875 C 8.53125 -7.375 9.019531 -6.882812 9.375 -6.25 C 9.726562 -5.625 9.90625 -4.898438 9.90625 -4.078125 C 9.90625 -3.253906 9.726562 -2.523438 9.375 -1.890625 C 9.019531 -1.253906 8.53125 -0.757812 7.90625 -0.40625 C 7.28125 -0.0625 6.566406 0.109375 5.765625 0.109375 C 4.671875 0.109375 3.800781 -0.257812 3.15625 -1 L 3.15625 2.96875 L 1.25 2.96875 L 1.25 -8.15625 L 3.0625 -8.15625 L 3.0625 -7.078125 C 3.382812 -7.460938 3.773438 -7.753906 4.234375 -7.953125 C 4.703125 -8.148438 5.210938 -8.25 5.765625 -8.25 Z M 5.5625 -1.53125 C 6.257812 -1.53125 6.832031 -1.765625 7.28125 -2.234375 C 7.738281 -2.703125 7.96875 -3.316406 7.96875 -4.078125 C 7.96875 -4.835938 7.738281 -5.453125 7.28125 -5.921875 C 6.832031 -6.390625 6.257812 -6.625 5.5625 -6.625 C 5.101562 -6.625 4.6875 -6.519531 4.3125 -6.3125 C 3.945312 -6.101562 3.65625 -5.804688 3.4375 -5.421875 C 3.226562 -5.035156 3.125 -4.585938 3.125 -4.078125 C 3.125 -3.566406 3.226562 -3.117188 3.4375 -2.734375 C 3.65625 -2.347656 3.945312 -2.050781 4.3125 -1.84375 C 4.6875 -1.632812 5.101562 -1.53125 5.5625 -1.53125 Z M 5.5625 -1.53125" transform="translate(513.521 128.047)"/></g></g></g><g fill="#8C52FF"><g><g><path d="M 5.875 -8.25 C 6.90625 -8.25 7.726562 -7.945312 8.34375 -7.34375 C 8.96875 -6.738281 9.28125 -5.847656 9.28125 -4.671875 L 9.28125 0 L 7.375 0 L 7.375 -4.421875 C 7.375 -5.140625 7.203125 -5.675781 6.859375 -6.03125 C 6.523438 -6.394531 6.050781 -6.578125 5.4375 -6.578125 C 4.726562 -6.578125 4.171875 -6.363281 3.765625 -5.9375 C 3.359375 -5.519531 3.15625 -4.914062 3.15625 -4.125 L 3.15625 0 L 1.25 0 L 1.25 -11.328125 L 3.15625 -11.328125 L 3.15625 -7.203125 C 3.476562 -7.535156 3.867188 -7.789062 4.328125 -7.96875 C 4.785156 -8.15625 5.300781 -8.25 5.875 -8.25 Z M 5.875 -8.25" transform="translate(523.988 128.047)"/></g></g></g><g fill="#8C52FF"><g><g><path d="M 12.71875 1.0625 C 12.363281 1.476562 11.945312 1.789062 11.46875 2 C 11 2.21875 10.484375 2.328125 9.921875 2.328125 C 9.191406 2.328125 8.519531 2.160156 7.90625 1.828125 C 7.289062 1.503906 6.59375 0.9375 5.8125 0.125 C 4.820312 0.0390625 3.9375 -0.242188 3.15625 -0.734375 C 2.375 -1.234375 1.765625 -1.878906 1.328125 -2.671875 C 0.890625 -3.472656 0.671875 -4.363281 0.671875 -5.34375 C 0.671875 -6.382812 0.921875 -7.320312 1.421875 -8.15625 C 1.921875 -9 2.609375 -9.65625 3.484375 -10.125 C 4.359375 -10.601562 5.335938 -10.84375 6.421875 -10.84375 C 7.515625 -10.84375 8.5 -10.601562 9.375 -10.125 C 10.25 -9.65625 10.9375 -9.003906 11.4375 -8.171875 C 11.9375 -7.335938 12.1875 -6.394531 12.1875 -5.34375 C 12.1875 -4.5 12.015625 -3.71875 11.671875 -3 C 11.335938 -2.28125 10.867188 -1.664062 10.265625 -1.15625 C 9.671875 -0.65625 8.976562 -0.296875 8.1875 -0.078125 C 8.476562 0.234375 8.765625 0.460938 9.046875 0.609375 C 9.335938 0.753906 9.644531 0.828125 9.96875 0.828125 C 10.664062 0.828125 11.273438 0.539062 11.796875 -0.03125 Z M 2.671875 -5.34375 C 2.671875 -4.632812 2.832031 -3.988281 3.15625 -3.40625 C 3.488281 -2.832031 3.9375 -2.382812 4.5 -2.0625 C 5.070312 -1.75 5.710938 -1.59375 6.421875 -1.59375 C 7.140625 -1.59375 7.78125 -1.75 8.34375 -2.0625 C 8.914062 -2.382812 9.363281 -2.832031 9.6875 -3.40625 C 10.019531 -3.988281 10.1875 -4.632812 10.1875 -5.34375 C 10.1875 -6.050781 10.019531 -6.691406 9.6875 -7.265625 C 9.363281 -7.847656 8.914062 -8.296875 8.34375 -8.609375 C 7.78125 -8.929688 7.140625 -9.09375 6.421875 -9.09375 C 5.710938 -9.09375 5.070312 -8.929688 4.5 -8.609375 C 3.9375 -8.296875 3.488281 -7.847656 3.15625 -7.265625 C 2.832031 -6.691406 2.671875 -6.050781 2.671875 -5.34375 Z M 2.671875 -5.34375" transform="translate(534.44 128.047)"/></g></g></g><g fill="#8C52FF"><g><g><path d="M 1.4375 -10.6875 L 3.421875 -10.6875 L 3.421875 -1.671875 L 9 -1.671875 L 9 0 L 1.4375 0 Z M 1.4375 -10.6875" transform="translate(547.287 128.047)"/></g></g></g><g fill="#8C52FF"><g><g><path d="M 1.25 -8.15625 L 3.15625 -8.15625 L 3.15625 0 L 1.25 0 Z M 2.21875 -9.5 C 1.875 -9.5 1.582031 -9.609375 1.34375 -9.828125 C 1.113281 -10.046875 1 -10.316406 1 -10.640625 C 1 -10.960938 1.113281 -11.234375 1.34375 -11.453125 C 1.582031 -11.671875 1.875 -11.78125 2.21875 -11.78125 C 2.5625 -11.78125 2.847656 -11.675781 3.078125 -11.46875 C 3.316406 -11.257812 3.4375 -11 3.4375 -10.6875 C 3.4375 -10.351562 3.320312 -10.070312 3.09375 -9.84375 C 2.863281 -9.613281 2.570312 -9.5 2.21875 -9.5 Z M 2.21875 -9.5" transform="translate(560.637 128.047)"/></g></g></g><g fill="#8C52FF"><g><g><path d="M 5.875 -8.25 C 6.90625 -8.25 7.726562 -7.945312 8.34375 -7.34375 C 8.96875 -6.738281 9.28125 -5.847656 9.28125 -4.671875 L 9.28125 0 L 7.375 0 L 7.375 -4.421875 C 7.375 -5.140625 7.203125 -5.675781 6.859375 -6.03125 C 6.523438 -6.394531 6.050781 -6.578125 5.4375 -6.578125 C 4.726562 -6.578125 4.171875 -6.363281 3.765625 -5.9375 C 3.359375 -5.519531 3.15625 -4.914062 3.15625 -4.125 L 3.15625 0 L 1.25 0 L 1.25 -8.15625 L 3.0625 -8.15625 L 3.0625 -7.09375 C 3.382812 -7.46875 3.785156 -7.753906 4.265625 -7.953125 C 4.742188 -8.148438 5.28125 -8.25 5.875 -8.25 Z M 5.875 -8.25" transform="translate(565.047 128.047)"/></g></g></g><g fill="#8C52FF"><g><g><path d="M 6.15625 -0.4375 C 5.925781 -0.257812 5.648438 -0.125 5.328125 -0.03125 C 5.015625 0.0625 4.675781 0.109375 4.3125 0.109375 C 3.425781 0.109375 2.738281 -0.125 2.25 -0.59375 C 1.757812 -1.0625 1.515625 -1.742188 1.515625 -2.640625 L 1.515625 -6.5625 L 0.171875 -6.5625 L 0.171875 -8.09375 L 1.515625 -8.09375 L 1.515625 -9.953125 L 3.421875 -9.953125 L 3.421875 -8.09375 L 5.609375 -8.09375 L 5.609375 -6.5625 L 3.421875 -6.5625 L 3.421875 -2.6875 C 3.421875 -2.289062 3.515625 -1.988281 3.703125 -1.78125 C 3.898438 -1.570312 4.179688 -1.46875 4.546875 -1.46875 C 4.972656 -1.46875 5.332031 -1.578125 5.625 -1.796875 Z M 6.15625 -0.4375" transform="translate(575.499 128.047)"/></g></g></g><g fill="#8C52FF"><g><g><path d="M 8.921875 -4.03125 C 8.921875 -3.894531 8.910156 -3.707031 8.890625 -3.46875 L 2.484375 -3.46875 C 2.597656 -2.863281 2.890625 -2.382812 3.359375 -2.03125 C 3.835938 -1.6875 4.425781 -1.515625 5.125 -1.515625 C 6.019531 -1.515625 6.757812 -1.804688 7.34375 -2.390625 L 8.359375 -1.21875 C 7.992188 -0.78125 7.53125 -0.445312 6.96875 -0.21875 C 6.414062 0 5.785156 0.109375 5.078125 0.109375 C 4.179688 0.109375 3.390625 -0.0664062 2.703125 -0.421875 C 2.023438 -0.785156 1.5 -1.285156 1.125 -1.921875 C 0.757812 -2.554688 0.578125 -3.273438 0.578125 -4.078125 C 0.578125 -4.867188 0.753906 -5.582031 1.109375 -6.21875 C 1.472656 -6.851562 1.976562 -7.347656 2.625 -7.703125 C 3.269531 -8.066406 3.992188 -8.25 4.796875 -8.25 C 5.585938 -8.25 6.296875 -8.070312 6.921875 -7.71875 C 7.546875 -7.363281 8.035156 -6.867188 8.390625 -6.234375 C 8.742188 -5.597656 8.921875 -4.863281 8.921875 -4.03125 Z M 4.796875 -6.71875 C 4.179688 -6.71875 3.660156 -6.535156 3.234375 -6.171875 C 2.816406 -5.816406 2.5625 -5.335938 2.46875 -4.734375 L 7.09375 -4.734375 C 7.007812 -5.328125 6.757812 -5.804688 6.34375 -6.171875 C 5.925781 -6.535156 5.410156 -6.71875 4.796875 -6.71875 Z M 4.796875 -6.71875" transform="translate(581.968 128.047)"/></g></g></g><g fill="#8C52FF"><g><g><path d="M 9.34375 -8.15625 L 9.34375 -1.234375 C 9.34375 1.628906 7.878906 3.0625 4.953125 3.0625 C 4.160156 3.0625 3.410156 2.960938 2.703125 2.765625 C 2.003906 2.566406 1.429688 2.28125 0.984375 1.90625 L 1.828125 0.46875 C 2.179688 0.769531 2.628906 1.007812 3.171875 1.1875 C 3.722656 1.363281 4.28125 1.453125 4.84375 1.453125 C 5.738281 1.453125 6.394531 1.25 6.8125 0.84375 C 7.226562 0.4375 7.4375 -0.179688 7.4375 -1.015625 L 7.4375 -1.453125 C 7.113281 -1.097656 6.71875 -0.828125 6.25 -0.640625 C 5.78125 -0.453125 5.265625 -0.359375 4.703125 -0.359375 C 3.929688 -0.359375 3.226562 -0.523438 2.59375 -0.859375 C 1.96875 -1.191406 1.472656 -1.65625 1.109375 -2.25 C 0.753906 -2.851562 0.578125 -3.539062 0.578125 -4.3125 C 0.578125 -5.09375 0.753906 -5.78125 1.109375 -6.375 C 1.472656 -6.96875 1.96875 -7.425781 2.59375 -7.75 C 3.226562 -8.082031 3.929688 -8.25 4.703125 -8.25 C 5.296875 -8.25 5.832031 -8.148438 6.3125 -7.953125 C 6.789062 -7.753906 7.195312 -7.457031 7.53125 -7.0625 L 7.53125 -8.15625 Z M 4.984375 -1.984375 C 5.710938 -1.984375 6.304688 -2.195312 6.765625 -2.625 C 7.234375 -3.0625 7.46875 -3.625 7.46875 -4.3125 C 7.46875 -5 7.234375 -5.554688 6.765625 -5.984375 C 6.304688 -6.410156 5.710938 -6.625 4.984375 -6.625 C 4.253906 -6.625 3.65625 -6.410156 3.1875 -5.984375 C 2.726562 -5.554688 2.5 -5 2.5 -4.3125 C 2.5 -3.625 2.726562 -3.0625 3.1875 -2.625 C 3.65625 -2.195312 4.253906 -1.984375 4.984375 -1.984375 Z M 4.984375 -1.984375" transform="translate(591.458 128.047)"/></g></g></g><g fill="#8C52FF"><g><g><path d="M 3.0625 -6.96875 C 3.613281 -7.820312 4.582031 -8.25 5.96875 -8.25 L 5.96875 -6.421875 C 5.800781 -6.453125 5.65625 -6.46875 5.53125 -6.46875 C 4.78125 -6.46875 4.195312 -6.25 3.78125 -5.8125 C 3.363281 -5.382812 3.15625 -4.765625 3.15625 -3.953125 L 3.15625 0 L 1.25 0 L 1.25 -8.15625 L 3.0625 -8.15625 Z M 3.0625 -6.96875" transform="translate(602.047 128.047)"/></g></g></g><g fill="#8C52FF"><g><g><path d="M 4.359375 -8.25 C 5.566406 -8.25 6.488281 -7.957031 7.125 -7.375 C 7.757812 -6.800781 8.078125 -5.9375 8.078125 -4.78125 L 8.078125 0 L 6.28125 0 L 6.28125 -1 C 6.039062 -0.632812 5.703125 -0.359375 5.265625 -0.171875 C 4.835938 0.015625 4.316406 0.109375 3.703125 0.109375 C 3.097656 0.109375 2.566406 0.00390625 2.109375 -0.203125 C 1.648438 -0.410156 1.296875 -0.703125 1.046875 -1.078125 C 0.796875 -1.453125 0.671875 -1.867188 0.671875 -2.328125 C 0.671875 -3.066406 0.941406 -3.65625 1.484375 -4.09375 C 2.035156 -4.539062 2.894531 -4.765625 4.0625 -4.765625 L 6.171875 -4.765625 L 6.171875 -4.890625 C 6.171875 -5.453125 6 -5.882812 5.65625 -6.1875 C 5.3125 -6.5 4.804688 -6.65625 4.140625 -6.65625 C 3.679688 -6.65625 3.226562 -6.582031 2.78125 -6.4375 C 2.34375 -6.300781 1.96875 -6.101562 1.65625 -5.84375 L 0.921875 -7.234375 C 1.347656 -7.554688 1.859375 -7.804688 2.453125 -7.984375 C 3.054688 -8.160156 3.691406 -8.25 4.359375 -8.25 Z M 4.109375 -1.28125 C 4.585938 -1.28125 5.007812 -1.390625 5.375 -1.609375 C 5.75 -1.828125 6.015625 -2.140625 6.171875 -2.546875 L 6.171875 -3.5 L 4.203125 -3.5 C 3.097656 -3.5 2.546875 -3.132812 2.546875 -2.40625 C 2.546875 -2.0625 2.679688 -1.785156 2.953125 -1.578125 C 3.234375 -1.378906 3.617188 -1.28125 4.109375 -1.28125 Z M 4.109375 -1.28125" transform="translate(608.456 128.047)"/></g></g></g><g fill="#8C52FF"><g><g><path d="M 6.15625 -0.4375 C 5.925781 -0.257812 5.648438 -0.125 5.328125 -0.03125 C 5.015625 0.0625 4.675781 0.109375 4.3125 0.109375 C 3.425781 0.109375 2.738281 -0.125 2.25 -0.59375 C 1.757812 -1.0625 1.515625 -1.742188 1.515625 -2.640625 L 1.515625 -6.5625 L 0.171875 -6.5625 L 0.171875 -8.09375 L 1.515625 -8.09375 L 1.515625 -9.953125 L 3.421875 -9.953125 L 3.421875 -8.09375 L 5.609375 -8.09375 L 5.609375 -6.5625 L 3.421875 -6.5625 L 3.421875 -2.6875 C 3.421875 -2.289062 3.515625 -1.988281 3.703125 -1.78125 C 3.898438 -1.570312 4.179688 -1.46875 4.546875 -1.46875 C 4.972656 -1.46875 5.332031 -1.578125 5.625 -1.796875 Z M 6.15625 -0.4375" transform="translate(617.717 128.047)"/></g></g></g><g fill="#8C52FF"><g><g><path d="M 1.25 -8.15625 L 3.15625 -8.15625 L 3.15625 0 L 1.25 0 Z M 2.21875 -9.5 C 1.875 -9.5 1.582031 -9.609375 1.34375 -9.828125 C 1.113281 -10.046875 1 -10.316406 1 -10.640625 C 1 -10.960938 1.113281 -11.234375 1.34375 -11.453125 C 1.582031 -11.671875 1.875 -11.78125 2.21875 -11.78125 C 2.5625 -11.78125 2.847656 -11.675781 3.078125 -11.46875 C 3.316406 -11.257812 3.4375 -11 3.4375 -10.6875 C 3.4375 -10.351562 3.320312 -10.070312 3.09375 -9.84375 C 2.863281 -9.613281 2.570312 -9.5 2.21875 -9.5 Z M 2.21875 -9.5" transform="translate(624.187 128.047)"/></g></g></g><g fill="#8C52FF"><g><g><path d="M 4.921875 0.109375 C 4.085938 0.109375 3.335938 -0.0664062 2.671875 -0.421875 C 2.015625 -0.785156 1.5 -1.285156 1.125 -1.921875 C 0.757812 -2.554688 0.578125 -3.273438 0.578125 -4.078125 C 0.578125 -4.878906 0.757812 -5.59375 1.125 -6.21875 C 1.5 -6.851562 2.015625 -7.347656 2.671875 -7.703125 C 3.335938 -8.066406 4.085938 -8.25 4.921875 -8.25 C 5.753906 -8.25 6.5 -8.066406 7.15625 -7.703125 C 7.820312 -7.347656 8.335938 -6.851562 8.703125 -6.21875 C 9.078125 -5.59375 9.265625 -4.878906 9.265625 -4.078125 C 9.265625 -3.273438 9.078125 -2.554688 8.703125 -1.921875 C 8.335938 -1.285156 7.820312 -0.785156 7.15625 -0.421875 C 6.5 -0.0664062 5.753906 0.109375 4.921875 0.109375 Z M 4.921875 -1.53125 C 5.617188 -1.53125 6.195312 -1.765625 6.65625 -2.234375 C 7.113281 -2.703125 7.34375 -3.316406 7.34375 -4.078125 C 7.34375 -4.835938 7.113281 -5.453125 6.65625 -5.921875 C 6.195312 -6.390625 5.617188 -6.625 4.921875 -6.625 C 4.210938 -6.625 3.628906 -6.390625 3.171875 -5.921875 C 2.722656 -5.453125 2.5 -4.835938 2.5 -4.078125 C 2.5 -3.316406 2.722656 -2.703125 3.171875 -2.234375 C 3.628906 -1.765625 4.210938 -1.53125 4.921875 -1.53125 Z M 4.921875 -1.53125" transform="translate(628.596 128.047)"/></g></g></g><g fill="#8C52FF"><g><g><path d="M 5.875 -8.25 C 6.90625 -8.25 7.726562 -7.945312 8.34375 -7.34375 C 8.96875 -6.738281 9.28125 -5.847656 9.28125 -4.671875 L 9.28125 0 L 7.375 0 L 7.375 -4.421875 C 7.375 -5.140625 7.203125 -5.675781 6.859375 -6.03125 C 6.523438 -6.394531 6.050781 -6.578125 5.4375 -6.578125 C 4.726562 -6.578125 4.171875 -6.363281 3.765625 -5.9375 C 3.359375 -5.519531 3.15625 -4.914062 3.15625 -4.125 L 3.15625 0 L 1.25 0 L 1.25 -8.15625 L 3.0625 -8.15625 L 3.0625 -7.09375 C 3.382812 -7.46875 3.785156 -7.753906 4.265625 -7.953125 C 4.742188 -8.148438 5.28125 -8.25 5.875 -8.25 Z M 5.875 -8.25" transform="translate(638.438 128.047)"/></g></g></g></svg>