<svg xmlns="http://www.w3.org/2000/svg" xmlns:xlink="http://www.w3.org/1999/xlink" viewBox="0 0 66.93 68.65"><defs><style>.cls-1{fill:url(#radial-gradient);}.cls-2{fill:url(#linear-gradient);}.cls-3{fill:url(#linear-gradient-2);}.cls-4{fill:#06f;}.cls-5{fill:url(#linear-gradient-3);}</style><radialGradient id="radial-gradient" cx="73.54" cy="68.44" r="114.94" gradientUnits="userSpaceOnUse"><stop offset="0" stop-color="#96f"/><stop offset="1" stop-color="#9cf"/></radialGradient><linearGradient id="linear-gradient" x1="6.69" y1="13.5" x2="63.67" y2="70.48" gradientUnits="userSpaceOnUse"><stop offset="0.15" stop-color="#a359d8"/><stop offset="0.3" stop-color="#9853d6"/><stop offset="0.56" stop-color="#7c42d2"/><stop offset="0.89" stop-color="#4f27cb"/><stop offset="1" stop-color="#3f1ec9"/></linearGradient><linearGradient id="linear-gradient-2" x1="7.06" y1="13.13" x2="64.04" y2="70.11" gradientUnits="userSpaceOnUse"><stop offset="0" stop-color="#a359d8"/><stop offset="1" stop-color="#3f1ec9"/></linearGradient><linearGradient id="linear-gradient-3" x1="17.58" y1="2.61" x2="74.56" y2="59.59" gradientUnits="userSpaceOnUse"><stop offset="0.15" stop-color="#a359d8"/><stop offset="0.31" stop-color="#9752d6"/><stop offset="0.6" stop-color="#763fd1"/><stop offset="0.98" stop-color="#4220c9"/><stop offset="1" stop-color="#3f1ec9"/></linearGradient></defs><g id="Layer_2" data-name="Layer 2"><g id="Layer_1-2" data-name="Layer 1"><path class="cls-1" d="M41,37l0,0h0Z"/><path class="cls-2" d="M32,22a14.86,14.86,0,0,0,0,29.72,14.31,14.31,0,0,0,2.25-.18L19.69,37,34.44,22.22A14.88,14.88,0,0,0,32,22Z"/><path class="cls-3" d="M32,57.67a20.79,20.79,0,1,1,7.23-40.28l8-8a31.69,31.69,0,1,0,0,55.19l-8.14-8.14A20.7,20.7,0,0,1,32,57.67Z"/><path class="cls-4" d="M34.11,37a1.62,1.62,0,0,1,.49-1.18L57,13.35a1.71,1.71,0,0,1,2.36,0l2.31,2.3L66.93,0,51.27,5.22l2.34,2.34a1.64,1.64,0,0,1,.49,1.18,1.62,1.62,0,0,1-.49,1.18L26.57,37,56.08,66.48l3.42-3.43L34.6,38.15A1.64,1.64,0,0,1,34.11,37Z"/><path class="cls-5" d="M63.76,39.42c.05-.43.1-.85.13-1.28a.62.62,0,0,0-.15-.47l-.09-.07a.62.62,0,0,0-.37-.13H42.83a.64.64,0,0,0-.37.13h0a1.12,1.12,0,0,0-.2.25.62.62,0,0,0,.14.67L57.68,53.8a.58.58,0,0,0,.43.18.62.62,0,0,0,.52-.28l.26-.43.09-.14a34.47,34.47,0,0,0,4.1-9.94C63.37,41.93,63.6,40.67,63.76,39.42Z"/></g></g></svg>