<svg xmlns="http://www.w3.org/2000/svg" viewBox="0 0 290 46.54"><defs><style>.cls-1{fill:#3e057a;}.cls-2{fill:#90f;}</style></defs><g id="Layer_2" data-name="Layer 2"><g id="Layer_1-2" data-name="Layer 1"><path class="cls-1" d="M27.46,20h6.39V34.48A23.09,23.09,0,0,1,19.6,39.11C8.32,39.11,0,31.25,0,20.38S8.32,1.66,19.71,1.66c6.08,0,11.18,2,14.61,5.93l-4.26,4.16A13.52,13.52,0,0,0,20,7.59c-7.75,0-13.21,5.25-13.21,12.79S12.27,33.18,20,33.18a14.64,14.64,0,0,0,7.49-1.88Z"/><path class="cls-1" d="M81.17,42.22a12.11,12.11,0,0,1-9.51,4.32c-4.94,0-8.64-1.92-14-7.54-10.19-.88-17.53-8.53-17.53-18.62,0-10.76,8.32-18.72,19.61-18.72s19.6,7.91,19.6,18.72a18.24,18.24,0,0,1-13.62,18c2.08,2.23,4,3.06,6.08,3.06a8.2,8.2,0,0,0,6.24-2.91Zm-21.42-9a12.41,12.41,0,0,0,12.79-12.8A12.41,12.41,0,0,0,59.75,7.59,12.41,12.41,0,0,0,47,20.38,12.41,12.41,0,0,0,59.75,33.18Z"/><path class="cls-2" d="M86.53,2.18h6.76V32.87h19v5.71H86.53Z"/><path class="cls-2" d="M142.79,26.78H121c.78,4.06,4.16,6.66,9,6.66a10,10,0,0,0,7.54-3l3.48,4c-2.49,3-6.39,4.53-11.18,4.53-9.3,0-15.34-6-15.34-14.25s6.09-14.2,14.36-14.2c8.11,0,14,5.67,14,14.36C142.9,25.38,142.84,26.16,142.79,26.78ZM121,22.46h15.76a7.56,7.56,0,0,0-7.85-6.76A7.68,7.68,0,0,0,121,22.46Z"/><path class="cls-2" d="M174.62,10.82,162.71,38.58H156L144.09,10.82h6.76l8.63,20.59,8.9-20.59Z"/><path class="cls-2" d="M201,22.31V38.58H194.9V35.21c-1.57,2.39-4.58,3.74-8.74,3.74-6.35,0-10.35-3.49-10.35-8.32,0-4.63,3.12-8.27,11.54-8.27h7.18v-.42c0-3.79-2.29-6-6.91-6a13.74,13.74,0,0,0-8.43,2.76l-2.55-4.73c3-2.29,7.28-3.44,11.76-3.44C196.4,10.5,201,14.3,201,22.31Zm-6.5,7.59V26.68h-6.71c-4.42,0-5.61,1.66-5.61,3.69,0,2.34,2,3.85,5.3,3.85C190.68,34.22,193.44,32.76,194.53,29.9Z"/><path class="cls-2" d="M226,37.08A10.2,10.2,0,0,1,219.8,39c-6.08,0-9.56-3.23-9.56-9.36V16.22h-4.58V11h4.58V4.68h6.5V11h7.43v5.2h-7.43V29.43c0,2.71,1.35,4.16,3.84,4.16a5.81,5.81,0,0,0,3.64-1.14Z"/><path class="cls-2" d="M256.46,26.78H234.68c.78,4.06,4.16,6.66,9,6.66a9.94,9.94,0,0,0,7.54-3l3.49,4c-2.5,3-6.4,4.53-11.18,4.53-9.31,0-15.35-6-15.35-14.25s6.09-14.2,14.36-14.2c8.11,0,14,5.67,14,14.36C256.57,25.38,256.52,26.16,256.46,26.78Zm-21.84-4.32h15.76a7.56,7.56,0,0,0-7.85-6.76A7.69,7.69,0,0,0,234.62,22.46Z"/><path class="cls-2" d="M290,0V38.58h-6.24V35a11.43,11.43,0,0,1-9.2,4c-8.06,0-14-5.62-14-14.25s6-14.2,14-14.2a11.35,11.35,0,0,1,8.94,3.75V0Zm-6.39,24.7c0-5.3-3.59-8.68-8.27-8.68s-8.27,3.38-8.27,8.68,3.59,8.68,8.27,8.68S283.61,30,283.61,24.7Z"/></g></g></svg>